<?xml version="1.0" encoding="UTF-8" standalone="no"?>
<svg
   width="2496"
   height="1542"
   xml:space="preserve"
   overflow="hidden"
   version="1.1"
   id="svg54"
   sodipodi:docname="cht_setup.svg"
   inkscape:version="1.3.2 (091e20e, 2023-11-25, custom)"
   xmlns:inkscape="http://www.inkscape.org/namespaces/inkscape"
   xmlns:sodipodi="http://sodipodi.sourceforge.net/DTD/sodipodi-0.dtd"
   xmlns="http://www.w3.org/2000/svg"
   xmlns:svg="http://www.w3.org/2000/svg"><defs
     id="defs54" /><sodipodi:namedview
     id="namedview54"
     pagecolor="#ffffff"
     bordercolor="#000000"
     borderopacity="0.25"
     inkscape:showpageshadow="2"
     inkscape:pageopacity="0.0"
     inkscape:pagecheckerboard="0"
     inkscape:deskcolor="#d1d1d1"
     inkscape:zoom="0.47435897"
     inkscape:cx="1248"
     inkscape:cy="770.51351"
     inkscape:window-width="1920"
     inkscape:window-height="1017"
     inkscape:window-x="3832"
     inkscape:window-y="-8"
     inkscape:window-maximized="1"
     inkscape:current-layer="g54" /><g
     transform="translate(-77 -235)"
     id="g54"><rect
       x="571.5"
       y="1187.5"
       width="1675"
       height="219"
       stroke="#000000"
       stroke-width="11.4583"
       stroke-miterlimit="8"
       fill="#D0CECE"
       id="rect1" /><path
       d="M5.72917-2.38419e-06 5.72952 838.573-5.72882 838.573-5.72917 2.38419e-06ZM17.1878 832.844 0.000360892 867.219-17.1872 832.844Z"
       transform="matrix(1 0 0 -1 571.5 1187.72)"
       id="path1" /><path
       d="M571.5 1181.77 2379.78 1181.77 2379.78 1193.23 571.5 1193.23ZM2374.04 1170.31 2408.41 1187.5 2374.04 1204.69Z"
       id="path2" /><path
       d="M577.229 1187.5 577.229 1233.33 565.771 1233.33 565.771 1187.5ZM577.229 1267.71 577.229 1313.54 565.771 1313.54 565.771 1267.71ZM577.229 1347.92 577.229 1393.75 565.771 1393.75 565.771 1347.92ZM577.229 1428.13 577.23 1473.96 565.771 1473.96 565.771 1428.13ZM577.23 1508.33 577.23 1554.17 565.771 1554.17 565.771 1508.33ZM577.23 1588.54 577.23 1634.38 565.771 1634.38 565.771 1588.54ZM577.23 1668.75 577.23 1671.26 565.771 1671.26 565.771 1668.75ZM588.688 1665.53 571.501 1699.9 554.313 1665.53Z"
       id="path3" /><path
       d="M497.229 299.691C498.311 299.691 499.233 299.836 499.998 300.126 500.525 300.337 501.053 300.686 501.58 301.174 502.107 301.662 502.575 302.341 502.984 303.211 503.393 304.081 503.749 305.056 504.052 306.138 504.355 307.219 504.691 308.774 505.061 310.805 505.693 314.206 506.306 317.785 506.9 321.543 507.493 325.3 508 328.787 508.422 332.004 510.98 328.312 513.149 324.7 514.928 321.167 516.708 317.634 517.987 314.562 518.765 311.952 519.543 309.341 519.932 307.219 519.932 305.584 519.932 304.345 519.668 303.501 519.141 303.053 518.613 302.604 517.717 302.341 516.451 302.262L516.847 300.324 527.248 300.324 528.316 302.301C526.312 307.785 523.597 313.652 520.169 319.901 516.794 326.018 512.931 332.109 508.581 338.174 504.415 343.948 500.947 348.127 498.179 350.711 496.254 352.478 494.395 353.743 492.602 354.508 491.178 355.088 489.662 355.378 488.054 355.378 487.5 355.378 486.861 355.332 486.135 355.24 485.41 355.148 484.85 355.022 484.455 354.864L486.155 347.191 489.28 347.191C489.28 348.879 489.86 349.723 491.02 349.723 492.549 349.723 494.329 348.767 496.359 346.855 498.39 344.943 500.776 342.063 503.518 338.213 502.753 333.599 501.712 328.035 500.394 321.523 498.996 314.562 498.073 310.251 497.625 308.59 497.071 306.586 496.491 305.307 495.885 304.753 495.516 304.41 495.054 304.239 494.5 304.239 493.657 304.239 492.866 304.582 492.127 305.267 491.389 305.953 490.479 307.139 489.398 308.827L486.828 307.126C488.647 304.41 490.348 302.492 491.93 301.372 493.512 300.251 495.278 299.691 497.229 299.691Z"
       fill-rule="evenodd"
       id="path4" /><text
       fill="#000000"
       fill-opacity="0"
       font-family="Arial,Arial_MSFontService,sans-serif"
       font-size="55.6875"
       x="484.455"
       y="348.417"
       id="text4">ğ‘¦</text><path
       d="M455.677 1636.46 504.403 1636.46 504.403 1641.72 455.677 1641.72Z"
       fill-rule="evenodd"
       id="path5" /><text
       fill="#000000"
       fill-opacity="0"
       font-family="Arial,Arial_MSFontService,sans-serif"
       font-size="5.26025"
       x="455.677"
       y="1641.06"
       id="text5">âˆ’</text><path
       d="M522.992 1623.81C524.073 1623.81 524.996 1623.95 525.76 1624.24 526.288 1624.45 526.815 1624.8 527.342 1625.29 527.87 1625.78 528.338 1626.46 528.746 1627.33 529.155 1628.2 529.511 1629.17 529.814 1630.25 530.117 1631.33 530.454 1632.89 530.823 1634.92 531.456 1638.32 532.069 1641.9 532.662 1645.66 533.255 1649.42 533.763 1652.9 534.185 1656.12 536.742 1652.43 538.911 1648.82 540.691 1645.28 542.471 1641.75 543.749 1638.68 544.527 1636.07 545.305 1633.46 545.694 1631.33 545.694 1629.7 545.694 1628.46 545.43 1627.62 544.903 1627.17 544.376 1626.72 543.479 1626.46 542.213 1626.38L542.609 1624.44 553.011 1624.44 554.079 1626.42C552.075 1631.9 549.359 1637.77 545.931 1644.02 542.556 1650.13 538.693 1656.22 534.343 1662.29 530.177 1668.06 526.71 1672.24 523.941 1674.83 522.016 1676.59 520.157 1677.86 518.364 1678.62 516.94 1679.2 515.424 1679.49 513.816 1679.49 513.262 1679.49 512.623 1679.45 511.898 1679.35 511.173 1679.26 510.612 1679.14 510.217 1678.98L511.918 1671.31 515.042 1671.31C515.042 1672.99 515.622 1673.84 516.782 1673.84 518.312 1673.84 520.091 1672.88 522.122 1670.97 524.152 1669.06 526.538 1666.18 529.28 1662.33 528.516 1657.71 527.474 1652.15 526.156 1645.64 524.758 1638.68 523.836 1634.37 523.387 1632.7 522.834 1630.7 522.253 1629.42 521.647 1628.87 521.278 1628.53 520.816 1628.35 520.263 1628.35 519.419 1628.35 518.628 1628.7 517.89 1629.38 517.151 1630.07 516.242 1631.25 515.161 1632.94L512.59 1631.24C514.409 1628.53 516.11 1626.61 517.692 1625.49 519.274 1624.37 521.041 1623.81 522.992 1623.81Z"
       fill-rule="evenodd"
       id="path6" /><text
       fill="#000000"
       fill-opacity="0"
       font-family="Arial,Arial_MSFontService,sans-serif"
       font-size="55.6875"
       x="510.217"
       y="1672.53"
       id="text6">ğ‘¦</text><path
       d="M2349.13 1111.36C2349.94 1111.36 2350.66 1111.46 2351.28 1111.64 2351.9 1111.83 2352.45 1112.11 2352.92 1112.49 2353.4 1112.87 2353.82 1113.37 2354.19 1113.97 2354.56 1114.58 2354.91 1115.4 2355.26 1116.45 2355.6 1117.49 2355.92 1118.78 2356.23 1120.32 2356.53 1121.86 2356.8 1123.47 2357.04 1125.13L2357.43 1125.13C2359.96 1121.57 2361.88 1118.96 2363.19 1117.32 2364.49 1115.67 2365.59 1114.44 2366.49 1113.64 2367.39 1112.83 2368.25 1112.27 2369.08 1111.94 2369.91 1111.61 2371.01 1111.44 2372.38 1111.44 2373.62 1111.44 2374.64 1111.6 2375.43 1111.92L2373.85 1119.08 2371.08 1119.08C2370.92 1117.97 2370.46 1117.42 2369.69 1117.42 2369.46 1117.42 2369.2 1117.45 2368.94 1117.53 2368.68 1117.61 2368.35 1117.78 2367.97 1118.05 2367.59 1118.31 2367.03 1118.83 2366.29 1119.59 2365.55 1120.36 2364.72 1121.29 2363.8 1122.4 2362.88 1123.51 2361.93 1124.67 2360.95 1125.88L2358.26 1129.24C2358.74 1131.77 2359.19 1133.96 2359.61 1135.81 2360.03 1137.65 2360.4 1139.19 2360.73 1140.41 2361.06 1141.64 2361.35 1142.61 2361.6 1143.32 2361.85 1144.03 2362.12 1144.57 2362.42 1144.92 2362.71 1145.28 2363 1145.53 2363.3 1145.67 2363.61 1145.82 2363.96 1145.89 2364.35 1145.89 2365.06 1145.89 2365.76 1145.61 2366.43 1145.06 2367.1 1144.51 2368.07 1143.26 2369.34 1141.3L2371.91 1143C2370.06 1145.75 2368.39 1147.68 2366.9 1148.8 2365.41 1149.92 2363.64 1150.48 2361.58 1150.48 2360.45 1150.48 2359.49 1150.28 2358.7 1149.87 2357.91 1149.46 2357.22 1148.81 2356.64 1147.91 2356.06 1147.01 2355.55 1145.61 2355.1 1143.72 2354.28 1140.34 2353.78 1137.76 2353.6 1135.96L2353.2 1135.96C2350.4 1139.89 2348.33 1142.71 2346.97 1144.43 2345.61 1146.14 2344.49 1147.41 2343.61 1148.23 2342.73 1149.04 2341.87 1149.62 2341.04 1149.95 2340.21 1150.28 2339.11 1150.44 2337.74 1150.44 2336.5 1150.44 2335.48 1150.28 2334.69 1149.97L2336.27 1142.81 2339.04 1142.81C2339.2 1143.91 2339.66 1144.47 2340.42 1144.47 2340.79 1144.47 2341.18 1144.37 2341.59 1144.17 2342 1143.97 2342.59 1143.5 2343.35 1142.75 2344.12 1142 2345.17 1140.82 2346.52 1139.21 2347.86 1137.6 2349.81 1135.19 2352.37 1131.97 2351.97 1129.89 2351.56 1127.88 2351.14 1125.96 2350.72 1124.03 2350.29 1122.24 2349.84 1120.58 2349.39 1118.92 2349.02 1117.83 2348.73 1117.32 2348.44 1116.8 2348.13 1116.45 2347.8 1116.25 2347.47 1116.05 2347.06 1115.95 2346.56 1115.95 2346 1115.95 2345.5 1116.08 2345.05 1116.33 2344.6 1116.58 2344.12 1117.01 2343.59 1117.63 2343.06 1118.25 2342.36 1119.22 2341.49 1120.54L2338.92 1118.84C2340.58 1116.33 2342.18 1114.46 2343.71 1113.22 2345.24 1111.98 2347.04 1111.36 2349.13 1111.36Z"
       fill-rule="evenodd"
       id="path7" /><text
       fill="#000000"
       fill-opacity="0"
       font-family="Arial,Arial_MSFontService,sans-serif"
       font-size="39.1157"
       x="2334.69"
       y="1145.59"
       id="text7">ğ‘¥</text><path
       d="M574.03 1186.35C723.554 872.294 1339.64 616.029 2167.11 523.699"
       stroke="#000000"
       stroke-width="11.4583"
       stroke-miterlimit="8"
       stroke-dasharray="45.8333 34.375"
       fill="none"
       fill-rule="evenodd"
       id="path8" /><path
       d="M571.514 1187.84C767.534 946.572 1433.91 758.03 2288 702.183"
       stroke="#000000"
       stroke-width="11.4583"
       stroke-miterlimit="8"
       stroke-dasharray="45.8333 34.375"
       fill="none"
       fill-rule="evenodd"
       id="path9" /><rect
       x="2173.5"
       y="439.5"
       width="183"
       height="327"
       stroke="#FFFFFF"
       stroke-width="11.4583"
       stroke-miterlimit="8"
       fill="#FFFFFF"
       id="rect9" /><path
       d="M257.5 659.771 485.495 659.771 485.495 671.229 257.5 671.229ZM479.766 648.313 514.141 665.5 479.766 682.688Z"
       id="path10" /><path
       d="M257.5 890.771 485.495 890.771 485.495 902.229 257.5 902.229ZM479.766 879.313 514.141 896.5 479.766 913.688Z"
       id="path11" /><path
       d="M257.5 1121.77 485.495 1121.77 485.495 1133.23 257.5 1133.23ZM479.766 1110.31 514.141 1127.5 479.766 1144.69Z"
       id="path12" /><path
       d="M257.5 775.771 485.495 775.771 485.495 787.229 257.5 787.229ZM479.766 764.313 514.141 781.5 479.766 798.688Z"
       id="path13" /><path
       d="M257.5 1005.77 485.495 1005.77 485.495 1017.23 257.5 1017.23ZM479.766 994.313 514.141 1011.5 479.766 1028.69Z"
       id="path14" /><text
       font-family="Times New Roman,Times New Roman_MSFontService,sans-serif"
       font-weight="400"
       font-size="92"
       transform="matrix(1 0 0 1 1917.44 467)"
       id="text14">T</text><text
       font-family="Times New Roman,Times New Roman_MSFontService,sans-serif"
       font-weight="400"
       font-size="92"
       transform="matrix(1 0 0 1 1973.58 467)"
       id="text15">hermal</text><text
       font-family="Times New Roman,Times New Roman_MSFontService,sans-serif"
       font-weight="400"
       font-size="92"
       transform="matrix(1 0 0 1 2250.3 467)"
       id="text16">BL</text><text
       font-family="Times New Roman,Times New Roman_MSFontService,sans-serif"
       font-weight="400"
       font-size="92"
       transform="matrix(1 0 0 1 1915.45 674)"
       id="text17">V</text><text
       font-family="Times New Roman,Times New Roman_MSFontService,sans-serif"
       font-weight="400"
       font-size="92"
       transform="matrix(1 0 0 1 1976.41 674)"
       id="text18">iscous</text><text
       font-family="Times New Roman,Times New Roman_MSFontService,sans-serif"
       font-weight="400"
       font-size="92"
       transform="matrix(1 0 0 1 2227.92 674)"
       id="text19">BL</text><path
       d="M2136.06 1232.58C2138.09 1232.58 2139.65 1233.05 2140.73 1234 2141.81 1234.95 2142.57 1236.45 2143.02 1238.49 2143.47 1240.54 2143.69 1243.52 2143.69 1247.45 2143.69 1248.74 2143.67 1250.61 2143.61 1253.07L2143.46 1259.32C2143.25 1265.25 2143.14 1269.91 2143.14 1273.32 2143.14 1276.06 2143.2 1278.2 2143.32 1279.74 2143.44 1281.29 2143.63 1282.45 2143.89 1283.24 2144.16 1284.03 2144.48 1284.57 2144.88 1284.85 2145.28 1285.12 2145.76 1285.26 2146.34 1285.26 2147.03 1285.26 2147.76 1285.03 2148.54 1284.57 2149.32 1284.11 2150.27 1283.27 2151.41 1282.06L2153.62 1284.27C2151.91 1286.01 2150.21 1287.37 2148.54 1288.35 2146.86 1289.32 2145.38 1289.81 2144.09 1289.81 2142.59 1289.81 2141.44 1289.51 2140.65 1288.9 2139.86 1288.29 2139.28 1287.29 2138.93 1285.89 2138.57 1284.5 2138.39 1282.44 2138.39 1279.72 2138.39 1275.98 2138.67 1269.85 2139.22 1261.33L2138.83 1261.33C2130.92 1272.93 2124.95 1282.22 2120.91 1289.18L2112.88 1289.18 2113.28 1287.24C2114.49 1285.76 2115.7 1284.23 2116.92 1282.63 2118.13 1281.04 2119.61 1279.01 2121.35 1276.56L2139.07 1251.41C2139.04 1248.72 2138.92 1246.46 2138.71 1244.64 2138.5 1242.82 2138.21 1241.38 2137.84 1240.31 2137.47 1239.24 2136.98 1238.46 2136.38 1237.96 2135.77 1237.46 2134.94 1237.21 2133.89 1237.21 2133.01 1237.21 2132.13 1237.46 2131.24 1237.96 2130.34 1238.46 2129.03 1239.49 2127.32 1241.04L2125.26 1238.75C2127.69 1236.35 2129.7 1234.72 2131.29 1233.86 2132.89 1233.01 2134.48 1232.58 2136.06 1232.58Z"
       fill-rule="evenodd"
       id="path19" /><text
       fill="#000000"
       fill-opacity="0"
       font-family="Arial,Arial_MSFontService,sans-serif"
       font-size="57.23"
       x="2112.88"
       y="1282.66"
       id="text20">ğœ†</text><path
       d="M2171.23 1276.22C2173.09 1276.22 2174.8 1276.33 2176.37 1276.56 2177.93 1276.79 2179.46 1277.13 2180.93 1277.57L2179.55 1284.08 2176.99 1284.08C2176.78 1282.35 2176.2 1281.08 2175.27 1280.25 2174.34 1279.42 2172.9 1279.01 2170.94 1279.01 2170.15 1279.01 2169.42 1279.12 2168.75 1279.33 2168.08 1279.54 2167.5 1279.83 2167.02 1280.21 2166.54 1280.58 2166.16 1281.03 2165.9 1281.55 2165.63 1282.06 2165.49 1282.63 2165.49 1283.25 2165.49 1283.8 2165.56 1284.31 2165.69 1284.77 2165.83 1285.23 2166.09 1285.69 2166.49 1286.13 2166.88 1286.57 2167.44 1287.03 2168.16 1287.51 2168.88 1287.99 2169.82 1288.54 2171 1289.15 2172.22 1289.82 2173.25 1290.47 2174.06 1291.08 2174.88 1291.7 2175.53 1292.32 2176.01 1292.95 2176.49 1293.59 2176.82 1294.27 2177.02 1294.99 2177.21 1295.71 2177.3 1296.51 2177.3 1297.39 2177.3 1298.75 2177.03 1299.98 2176.47 1301.06 2175.91 1302.15 2175.13 1303.07 2174.14 1303.82 2173.14 1304.56 2171.96 1305.14 2170.61 1305.54 2169.25 1305.95 2167.77 1306.15 2166.16 1306.15 2164.39 1306.15 2162.65 1306.03 2160.94 1305.8 2159.23 1305.57 2157.43 1305.18 2155.52 1304.62L2157.02 1298.05 2159.53 1298.05C2159.63 1299.84 2160.19 1301.18 2161.21 1302.07 2162.24 1302.97 2163.83 1303.41 2165.98 1303.41 2167.9 1303.41 2169.42 1303 2170.52 1302.17 2171.62 1301.35 2172.18 1300.2 2172.18 1298.72 2172.18 1298.04 2172.11 1297.46 2171.97 1296.97 2171.84 1296.48 2171.58 1296.02 2171.18 1295.58 2170.79 1295.13 2170.25 1294.68 2169.57 1294.21 2168.89 1293.74 2168 1293.19 2166.9 1292.58 2165.77 1291.95 2164.8 1291.32 2163.98 1290.71 2163.16 1290.09 2162.49 1289.47 2161.96 1288.83 2161.44 1288.2 2161.05 1287.54 2160.8 1286.85 2160.55 1286.16 2160.42 1285.42 2160.42 1284.63 2160.42 1283.42 2160.68 1282.3 2161.19 1281.27 2161.69 1280.25 2162.42 1279.36 2163.36 1278.61 2164.3 1277.86 2165.44 1277.27 2166.76 1276.85 2168.09 1276.43 2169.57 1276.22 2171.23 1276.22Z"
       fill-rule="evenodd"
       id="path20" /><text
       fill="#000000"
       fill-opacity="0"
       font-family="Arial,Arial_MSFontService,sans-serif"
       font-size="29.9321"
       x="2155.52"
       y="1302.41"
       id="text21">ğ‘ </text><text
       fill="#000000"
       fill-opacity="0"
       font-family="Arial,Arial_MSFontService,sans-serif"
       font-size="57.1904"
       x="2120.58"
       y="1149.35"
       id="text22">â„</text><path
       d="M2321.23 1216.15 2321.23 1378.02 2309.77 1378.02 2309.77 1216.15ZM2298.31 1221.88 2315.5 1187.5 2332.69 1221.88ZM2332.69 1372.29 2315.5 1406.66 2298.31 1372.29Z"
       id="path22" /><path
       d="M2129.29 1477.31C2127.85 1477.31 2126.44 1477.77 2125.05 1478.68 2123.65 1479.59 2122.1 1481.11 2120.4 1483.22 2118.69 1485.33 2117.3 1487.49 2116.22 1489.71 2115.14 1491.93 2114.23 1494.76 2113.48 1498.2L2113.08 1500.09C2112.63 1502.18 2112.4 1504.22 2112.4 1506.2 2112.4 1508.56 2112.92 1510.27 2113.95 1511.32 2114.98 1512.36 2116.7 1512.89 2119.09 1512.89 2120.32 1512.89 2121.49 1512.69 2122.6 1512.28 2123.71 1511.88 2124.84 1511.21 2125.99 1510.28 2127.14 1509.35 2128.24 1508.13 2129.27 1506.62 2130.3 1505.11 2131.25 1503.25 2132.12 1501.03 2132.99 1498.81 2133.66 1496.44 2134.14 1493.91 2134.62 1491.38 2134.86 1488.96 2134.86 1486.65 2134.86 1483.54 2134.42 1481.2 2133.54 1479.65 2132.65 1478.09 2131.24 1477.31 2129.29 1477.31ZM2121.43 1451.48 2124.04 1451.48 2116.13 1482.93 2116.71 1483.11C2119.62 1479.21 2122.34 1476.4 2124.89 1474.66 2127.44 1472.92 2129.98 1472.05 2132.53 1472.05 2135.79 1472.05 2138.33 1473.3 2140.14 1475.78 2141.95 1478.27 2142.86 1481.77 2142.86 1486.29 2142.86 1491.24 2141.86 1496.1 2139.87 1500.87 2137.88 1505.65 2135.12 1509.44 2131.58 1512.24 2128.05 1515.04 2124.1 1516.44 2119.72 1516.44 2115.74 1516.44 2112.21 1515.46 2109.12 1513.52L2104.99 1516.44 2102.11 1515.72 2113.75 1464.37C2114.44 1461.32 2114.78 1459.1 2114.78 1457.72 2114.78 1456.47 2114.4 1455.58 2113.64 1455.07 2112.87 1454.57 2111.5 1454.28 2109.53 1454.22L2110.07 1451.88Z"
       fill-rule="evenodd"
       id="path23" /><text
       fill="#000000"
       fill-opacity="0"
       font-family="Arial,Arial_MSFontService,sans-serif"
       font-size="64.957"
       x="2102.11"
       y="1508.32"
       id="text23">ğ‘</text><path
       d="M2181.42 1495.77 2236.77 1495.77 2236.77 1501.75 2181.42 1501.75ZM2181.42 1477.13 2236.77 1477.13 2236.77 1483.11 2181.42 1483.11Z"
       fill-rule="evenodd"
       id="path24" /><text
       fill="#000000"
       fill-opacity="0"
       font-family="Arial,Arial_MSFontService,sans-serif"
       font-size="24.6172"
       x="2181.42"
       y="1498.67"
       id="text24">=</text><path
       d="M2294.41 1457.5C2292.34 1457.5 2290.61 1458.11 2289.22 1459.34 2287.83 1460.57 2286.71 1462.34 2285.85 1464.64 2285 1466.95 2284.39 1469.76 2284.03 1473.07 2283.67 1476.37 2283.49 1480.11 2283.49 1484.27 2283.49 1494.04 2284.4 1501.2 2286.21 1505.77 2288.02 1510.34 2290.83 1512.62 2294.64 1512.62 2298.26 1512.62 2300.95 1510.47 2302.7 1506.17 2304.45 1501.88 2305.33 1495.22 2305.33 1486.21 2305.33 1479.32 2304.88 1473.74 2303.98 1469.47 2303.08 1465.2 2301.83 1462.14 2300.23 1460.29 2298.63 1458.43 2296.69 1457.5 2294.41 1457.5ZM2294.64 1453.68C2301.19 1453.68 2306.08 1456.21 2309.28 1461.27 2312.48 1466.33 2314.09 1473.99 2314.09 1484.23 2314.09 1494.83 2312.37 1502.85 2308.94 1508.28 2305.51 1513.72 2300.51 1516.44 2293.92 1516.44 2287.45 1516.44 2282.63 1513.89 2279.47 1508.8 2276.31 1503.71 2274.73 1495.98 2274.73 1485.62 2274.73 1480.11 2275.22 1475.35 2276.19 1471.34 2277.17 1467.32 2278.53 1464.01 2280.28 1461.39 2282.03 1458.77 2284.14 1456.83 2286.59 1455.57 2289.05 1454.31 2291.73 1453.68 2294.64 1453.68Z"
       fill-rule="evenodd"
       id="path25" /><text
       fill="#000000"
       fill-opacity="0"
       font-family="Arial,Arial_MSFontService,sans-serif"
       font-size="62.7559"
       x="2274.73"
       y="1508.59"
       id="text25">0</text><path
       d="M2324.83 1505.3 2333.9 1505.3 2333.9 1515.72 2324.83 1515.72Z"
       fill-rule="evenodd"
       id="path26" /><text
       fill="#000000"
       fill-opacity="0"
       font-family="Arial,Arial_MSFontService,sans-serif"
       font-size="10.4219"
       x="2324.83"
       y="1514.42"
       id="text26">.</text><path
       d="M2364.31 1457.5C2362.24 1457.5 2360.51 1458.11 2359.12 1459.34 2357.73 1460.57 2356.6 1462.34 2355.75 1464.64 2354.9 1466.95 2354.29 1469.76 2353.93 1473.07 2353.57 1476.37 2353.39 1480.11 2353.39 1484.27 2353.39 1494.04 2354.3 1501.2 2356.11 1505.77 2357.92 1510.34 2360.73 1512.62 2364.53 1512.62 2368.15 1512.62 2370.84 1510.47 2372.59 1506.17 2374.35 1501.88 2375.22 1495.22 2375.22 1486.21 2375.22 1479.32 2374.77 1473.74 2373.87 1469.47 2372.98 1465.2 2371.73 1462.14 2370.12 1460.29 2368.52 1458.43 2366.58 1457.5 2364.31 1457.5ZM2418.86 1453.68 2421.33 1453.68C2421.15 1456.56 2421.06 1460.54 2421.06 1465.63L2421.06 1503.99C2421.06 1505.73 2421.15 1507.04 2421.35 1507.92 2421.54 1508.81 2421.89 1509.53 2422.38 1510.08 2422.88 1510.64 2423.59 1511.07 2424.52 1511.38 2425.44 1511.7 2426.61 1511.94 2428.02 1512.1 2429.43 1512.27 2431.28 1512.38 2433.59 1512.44L2433.59 1515.72 2400.39 1515.72 2400.39 1512.44C2403.72 1512.29 2406.09 1512.09 2407.51 1511.83 2408.94 1511.58 2410.02 1511.2 2410.77 1510.69 2411.52 1510.18 2412.06 1509.46 2412.41 1508.53 2412.75 1507.6 2412.93 1506.09 2412.93 1503.99L2412.93 1467.56C2412.93 1466.36 2412.72 1465.49 2412.3 1464.93 2411.88 1464.38 2411.26 1464.1 2410.45 1464.1 2409.5 1464.1 2408.13 1464.6 2406.37 1465.59 2404.6 1466.57 2402.41 1467.94 2399.81 1469.67L2397.83 1466.21ZM2364.53 1453.68C2371.09 1453.68 2375.97 1456.21 2379.18 1461.27 2382.38 1466.33 2383.98 1473.99 2383.98 1484.23 2383.98 1494.83 2382.27 1502.85 2378.84 1508.28 2375.41 1513.72 2370.4 1516.44 2363.81 1516.44 2357.34 1516.44 2352.53 1513.89 2349.37 1508.8 2346.21 1503.71 2344.63 1495.98 2344.63 1485.62 2344.63 1480.11 2345.12 1475.35 2346.09 1471.34 2347.06 1467.32 2348.43 1464.01 2350.18 1461.39 2351.93 1458.77 2354.03 1456.83 2356.49 1455.57 2358.95 1454.31 2361.63 1453.68 2364.53 1453.68Z"
       fill-rule="evenodd"
       id="path27" /><text
       fill="#000000"
       fill-opacity="0"
       font-family="Arial,Arial_MSFontService,sans-serif"
       font-size="62.7559"
       x="2344.63"
       y="1508.59"
       id="text27">01</text><path
       d="M2475.02 1472.01C2476.9 1472.01 2478.39 1472.63 2479.49 1473.87 2480.58 1475.12 2481.13 1476.74 2481.13 1478.75 2481.13 1480.4 2480.78 1482.15 2480.09 1484L2480.63 1484.18C2483.39 1480.08 2486.13 1477.03 2488.85 1475.04 2491.58 1473.05 2494.33 1472.05 2497.12 1472.05 2499.99 1472.05 2502.18 1472.87 2503.68 1474.5 2505.17 1476.14 2505.92 1478.49 2505.92 1481.58L2505.92 1482.21C2505.92 1482.42 2505.91 1482.64 2505.88 1482.88 2508.45 1479.23 2511.02 1476.51 2513.58 1474.73 2516.14 1472.95 2518.8 1472.05 2521.56 1472.05 2524.31 1472.05 2526.44 1472.85 2527.94 1474.44 2529.43 1476.02 2530.18 1478.25 2530.18 1481.13 2530.18 1483.02 2529.75 1485.7 2528.88 1489.17L2525.96 1500.94C2525.15 1504.2 2524.75 1506.51 2524.75 1507.86 2524.75 1509.06 2524.94 1509.92 2525.33 1510.46 2525.72 1511 2526.33 1511.27 2527.17 1511.27 2528.07 1511.27 2529.03 1510.9 2530.05 1510.17 2531.06 1509.44 2532.5 1508.04 2534.36 1505.97L2536.92 1508.49C2534.34 1511.21 2532.1 1513.22 2530.18 1514.51 2528.26 1515.79 2526.08 1516.44 2523.62 1516.44 2521.68 1516.44 2520.12 1515.74 2518.95 1514.35 2517.78 1512.96 2517.2 1511.18 2517.2 1509.03 2517.2 1507.08 2517.69 1504.22 2518.68 1500.45L2520.66 1492.67C2521.38 1489.86 2521.85 1487.78 2522.07 1486.43 2522.3 1485.08 2522.41 1483.99 2522.41 1483.15 2522.41 1481.08 2522.07 1479.59 2521.38 1478.68 2520.69 1477.77 2519.56 1477.31 2518.01 1477.31 2516.75 1477.31 2515.4 1477.78 2513.96 1478.73 2512.53 1479.67 2511.01 1481.14 2509.43 1483.13 2507.84 1485.12 2506.54 1487.08 2505.54 1489.01 2504.54 1490.94 2503.74 1493.3 2503.14 1496.09L2499.05 1515.72 2491.28 1515.72 2496.45 1492.9C2497.07 1490.11 2497.5 1488.05 2497.73 1486.72 2497.95 1485.39 2498.06 1484.24 2498.06 1483.29 2498.06 1481.13 2497.68 1479.59 2496.92 1478.68 2496.15 1477.77 2494.96 1477.31 2493.35 1477.31 2492.21 1477.31 2490.91 1477.78 2489.46 1478.73 2488.01 1479.67 2486.46 1481.18 2484.81 1483.26 2483.16 1485.34 2481.88 1487.34 2480.95 1489.26 2480.02 1491.18 2479.24 1493.51 2478.61 1496.27L2474.34 1515.72 2466.57 1515.72 2473.13 1487.24C2473.79 1484.36 2474.12 1482.15 2474.12 1480.59 2474.12 1479.39 2473.92 1478.52 2473.53 1477.98 2473.15 1477.45 2472.53 1477.18 2471.69 1477.18 2470.76 1477.18 2469.78 1477.56 2468.75 1478.32 2467.72 1479.08 2466.3 1480.47 2464.51 1482.48L2461.95 1479.96C2464.58 1477.21 2466.85 1475.19 2468.75 1473.92 2470.65 1472.65 2472.74 1472.01 2475.02 1472.01Z"
       fill-rule="evenodd"
       id="path28" /><text
       fill="#000000"
       fill-opacity="0"
       font-family="Arial,Arial_MSFontService,sans-serif"
       font-size="44.4277"
       x="2461.95"
       y="1510.88"
       id="text28">ğ‘š</text><path
       d="M543.988 10.5035C757.29 63.3883 912.96 304.471 916.924 588.062"
       stroke="#000000"
       stroke-width="11.4583"
       stroke-miterlimit="8"
       fill="none"
       fill-rule="evenodd"
       transform="matrix(1 0 0 -1 722.5 1198.5)"
       id="path29" /><path
       d="M0 0 0.000360892 124.383"
       stroke="#000000"
       stroke-width="11.4583"
       stroke-miterlimit="8"
       fill="none"
       fill-rule="evenodd"
       transform="matrix(1 0 0 -1 1639.5 611.883)"
       id="path30" /><path
       d="M0 0 232.173 220.413"
       stroke="#000000"
       stroke-width="11.4583"
       stroke-miterlimit="8"
       fill="none"
       fill-rule="evenodd"
       transform="matrix(-1 0 0 1 1270.67 1186.5)"
       id="path31" /><path
       d="M868.113 1454.4 915.011 1454.4 911.507 1470.21 907.195 1470.21C907.195 1467.31 907.12 1465.13 906.97 1463.68 906.82 1462.22 906.536 1461.12 906.117 1460.35 905.697 1459.59 905.181 1459.06 904.567 1458.78 903.953 1458.5 902.867 1458.35 901.31 1458.35L894.662 1458.35 884.914 1502.65C884.644 1503.81 884.457 1504.74 884.352 1505.43 884.247 1506.12 884.157 1506.85 884.083 1507.61 884.008 1508.37 883.97 1509.06 883.97 1509.65 883.97 1510.58 884.12 1511.31 884.419 1511.83 884.719 1512.36 885.168 1512.74 885.767 1512.98 886.366 1513.22 887.399 1513.4 888.867 1513.52L888.373 1515.72 869.46 1515.72 869.955 1513.52C871.153 1513.34 872.036 1513.1 872.605 1512.8 873.174 1512.5 873.676 1512.04 874.11 1511.41 874.544 1510.78 874.978 1509.79 875.413 1508.44 875.847 1507.09 876.363 1505.06 876.962 1502.33L886.576 1458.35 880.871 1458.35C879.014 1458.35 877.531 1458.62 876.423 1459.16 875.315 1459.7 874.207 1460.7 873.099 1462.17 871.991 1463.64 870.643 1466.1 869.056 1469.54L864.744 1469.54Z"
       fill-rule="evenodd"
       id="path32" /><text
       fill="#000000"
       fill-opacity="0"
       font-family="Arial,Arial_MSFontService,sans-serif"
       font-size="61.3184"
       x="864.744"
       y="1508.05"
       id="text32">ğ‘‡</text><path
       d="M931.428 1505.4C930.446 1505.4 929.367 1505.72 928.189 1506.37 927.011 1507.01 925.85 1507.96 924.705 1509.23 923.56 1510.49 922.502 1512.06 921.532 1513.92 920.561 1515.79 919.792 1517.93 919.225 1520.35 919.051 1521.53 918.854 1522.68 918.636 1523.82 918.418 1524.95 918.309 1526.01 918.309 1526.99 918.309 1528.76 918.707 1530.01 919.503 1530.74 920.299 1531.47 921.581 1531.83 923.347 1531.83 925.136 1531.83 926.782 1531.26 928.287 1530.12 929.792 1528.97 931.084 1527.47 932.164 1525.62 933.244 1523.76 934.089 1521.68 934.699 1519.37 935.31 1517.06 935.615 1514.72 935.615 1512.37 935.615 1510.04 935.283 1508.29 934.618 1507.13 933.952 1505.98 932.889 1505.4 931.428 1505.4ZM923.773 1489.76 926.128 1489.76 921.548 1508.44 922.006 1508.67C923.118 1507.36 924.182 1506.22 925.196 1505.25 926.21 1504.28 927.202 1503.49 928.173 1502.87 929.143 1502.24 930.108 1501.78 931.068 1501.47 932.028 1501.17 933.02 1501.02 934.045 1501.02 936.619 1501.02 938.603 1501.95 939.999 1503.83 941.395 1505.71 942.093 1508.44 942.093 1512.04 942.093 1515.18 941.608 1518.14 940.637 1520.92 939.667 1523.7 938.353 1526.14 936.695 1528.24 935.037 1530.33 933.113 1531.98 930.921 1533.19 928.729 1534.4 926.412 1535.01 923.969 1535.01 922.399 1535.01 920.948 1534.85 919.618 1534.53 918.287 1534.22 916.99 1533.69 915.725 1532.95 915.18 1533.25 914.623 1533.59 914.056 1533.96 913.489 1534.33 912.955 1534.68 912.453 1535.01 912.061 1534.9 911.646 1534.79 911.21 1534.7 910.774 1534.6 910.36 1534.48 909.967 1534.35L917.819 1499.28C918.058 1498.19 918.238 1497.3 918.358 1496.6 918.478 1495.9 918.538 1495.29 918.538 1494.77 918.538 1494.35 918.473 1493.99 918.342 1493.69 918.211 1493.38 917.982 1493.14 917.655 1492.95 917.328 1492.77 916.892 1492.63 916.346 1492.54 915.801 1492.46 915.114 1492.4 914.285 1492.38L914.776 1490.16Z"
       fill-rule="evenodd"
       id="path33" /><text
       fill="#000000"
       fill-opacity="0"
       font-family="Arial,Arial_MSFontService,sans-serif"
       font-size="45.2446"
       x="909.967"
       y="1529.35"
       id="text33">ğ‘</text><path
       d="M984.022 1495.77 1039.37 1495.77 1039.37 1501.75 984.022 1501.75ZM984.022 1477.13 1039.37 1477.13 1039.37 1483.11 984.022 1483.11Z"
       fill-rule="evenodd"
       id="path34" /><text
       fill="#000000"
       fill-opacity="0"
       font-family="Arial,Arial_MSFontService,sans-serif"
       font-size="24.6172"
       x="984.022"
       y="1498.67"
       id="text34">=</text><path
       d="M1099.08 1483.38C1097.61 1483.38 1096.19 1483.54 1094.83 1483.87 1093.47 1484.2 1092.19 1484.68 1090.99 1485.31 1089.79 1485.94 1088.62 1486.73 1087.49 1487.69 1087.13 1488.02 1086.86 1488.36 1086.68 1488.72 1086.38 1489.29 1086.18 1489.99 1086.09 1490.83 1086 1491.67 1085.96 1493.08 1085.96 1495.05 1085.96 1500.77 1086.92 1505.13 1088.83 1508.13 1090.75 1511.12 1093.66 1512.62 1097.55 1512.62 1099.79 1512.62 1101.68 1512.23 1103.21 1511.45 1104.74 1510.67 1105.97 1509.6 1106.91 1508.24 1107.86 1506.88 1108.53 1505.27 1108.94 1503.43 1109.34 1501.59 1109.54 1499.59 1109.54 1497.44 1109.54 1493 1108.63 1489.55 1106.8 1487.08 1104.98 1484.61 1102.4 1483.38 1099.08 1483.38ZM1199.01 1457.5C1196.94 1457.5 1195.21 1458.11 1193.82 1459.34 1192.43 1460.57 1191.31 1462.34 1190.45 1464.64 1189.6 1466.95 1188.99 1469.76 1188.63 1473.07 1188.27 1476.37 1188.09 1480.11 1188.09 1484.27 1188.09 1494.04 1189 1501.2 1190.81 1505.77 1192.62 1510.34 1195.43 1512.62 1199.23 1512.62 1202.86 1512.62 1205.55 1510.47 1207.3 1506.17 1209.05 1501.88 1209.93 1495.22 1209.93 1486.21 1209.93 1479.32 1209.48 1473.74 1208.58 1469.47 1207.68 1465.2 1206.43 1462.14 1204.83 1460.29 1203.22 1458.43 1201.29 1457.5 1199.01 1457.5ZM1148.01 1457.5C1145.94 1457.5 1144.21 1458.11 1142.82 1459.34 1141.43 1460.57 1140.31 1462.34 1139.45 1464.64 1138.6 1466.95 1137.99 1469.76 1137.63 1473.07 1137.27 1476.37 1137.09 1480.11 1137.09 1484.27 1137.09 1494.04 1138 1501.2 1139.81 1505.77 1141.62 1510.34 1144.43 1512.62 1148.23 1512.62 1151.86 1512.62 1154.55 1510.47 1156.3 1506.17 1158.05 1501.88 1158.93 1495.22 1158.93 1486.21 1158.93 1479.32 1158.48 1473.74 1157.58 1469.47 1156.68 1465.2 1155.43 1462.14 1153.83 1460.29 1152.22 1458.43 1150.29 1457.5 1148.01 1457.5ZM1199.23 1453.68C1205.79 1453.68 1210.67 1456.21 1213.88 1461.27 1217.08 1466.33 1218.69 1473.99 1218.69 1484.23 1218.69 1494.83 1216.97 1502.85 1213.54 1508.28 1210.11 1513.72 1205.1 1516.44 1198.52 1516.44 1192.05 1516.44 1187.23 1513.89 1184.07 1508.8 1180.91 1503.71 1179.33 1495.98 1179.33 1485.62 1179.33 1480.11 1179.82 1475.35 1180.79 1471.34 1181.77 1467.32 1183.13 1464.01 1184.88 1461.39 1186.63 1458.77 1188.74 1456.83 1191.19 1455.57 1193.65 1454.31 1196.33 1453.68 1199.23 1453.68ZM1148.23 1453.68C1154.79 1453.68 1159.67 1456.21 1162.88 1461.27 1166.08 1466.33 1167.69 1473.99 1167.69 1484.23 1167.69 1494.83 1165.97 1502.85 1162.54 1508.28 1159.11 1513.72 1154.1 1516.44 1147.52 1516.44 1141.05 1516.44 1136.23 1513.89 1133.07 1508.8 1129.91 1503.71 1128.33 1495.98 1128.33 1485.62 1128.33 1480.11 1128.82 1475.35 1129.79 1471.34 1130.77 1467.32 1132.13 1464.01 1133.88 1461.39 1135.63 1458.77 1137.74 1456.83 1140.19 1455.57 1142.65 1454.31 1145.33 1453.68 1148.23 1453.68ZM1110.62 1453.68 1112.46 1456.15 1112.46 1458.35C1107.85 1458.35 1103.76 1459.34 1100.2 1461.32 1096.64 1463.29 1093.68 1466.2 1091.33 1470.03 1088.98 1473.87 1087.32 1478.42 1086.36 1483.69L1086.81 1483.87C1089.33 1482.07 1091.81 1480.75 1094.25 1479.92 1096.69 1479.08 1099.33 1478.66 1102.18 1478.66 1105.56 1478.66 1108.44 1479.4 1110.82 1480.88 1113.2 1482.36 1114.99 1484.45 1116.19 1487.13 1117.39 1489.81 1117.99 1492.94 1117.99 1496.54 1117.99 1500.43 1117.24 1503.87 1115.74 1506.85 1114.24 1509.83 1111.93 1512.17 1108.8 1513.88 1105.67 1515.58 1101.82 1516.44 1097.23 1516.44 1090.68 1516.44 1085.73 1514.4 1082.39 1510.33 1079.05 1506.26 1077.38 1500.25 1077.38 1492.31 1077.38 1486.98 1078.22 1482 1079.89 1477.36 1081.57 1472.71 1083.95 1468.66 1087.04 1465.2 1090.12 1461.75 1093.7 1459.02 1097.77 1457.03 1101.85 1455.04 1106.13 1453.92 1110.62 1453.68Z"
       fill-rule="evenodd"
       id="path35" /><text
       fill="#000000"
       fill-opacity="0"
       font-family="Arial,Arial_MSFontService,sans-serif"
       font-size="62.7559"
       x="1077.38"
       y="1508.59"
       id="text35">600</text><path
       d="M1258.89 1454.4 1276.86 1454.4 1276.36 1456.6C1275.23 1456.84 1274.41 1457.11 1273.92 1457.41 1273.42 1457.71 1272.98 1458.16 1272.59 1458.76 1272.2 1459.36 1271.8 1460.29 1271.38 1461.57 1270.96 1462.84 1270.43 1464.91 1269.81 1467.79L1266.62 1482.12 1268.1 1482.12C1269.36 1482.12 1270.5 1481.91 1271.54 1481.49 1272.57 1481.07 1273.77 1480.31 1275.15 1479.2 1276.53 1478.09 1278.72 1476.05 1281.73 1473.09 1284.74 1470.12 1286.88 1467.87 1288.16 1466.33 1289.43 1464.78 1290.36 1463.45 1290.94 1462.33 1291.53 1461.21 1291.82 1460.18 1291.82 1459.25 1291.82 1458.5 1291.52 1457.9 1290.92 1457.43 1290.32 1456.97 1289.47 1456.69 1288.36 1456.6L1288.85 1454.4 1308.12 1454.4 1307.63 1456.6C1306.43 1456.78 1305.08 1457.4 1303.56 1458.47 1302.05 1459.53 1299.74 1461.6 1296.62 1464.69L1279.19 1481.67 1288.76 1504.67C1289.75 1507.03 1290.57 1508.74 1291.21 1509.79 1291.85 1510.84 1292.63 1511.67 1293.52 1512.28 1294.42 1512.9 1295.53 1513.31 1296.85 1513.52L1296.35 1515.72 1279.01 1515.72 1279.51 1513.52C1281.13 1513.37 1281.93 1512.65 1281.93 1511.36 1281.93 1510.55 1281.77 1509.63 1281.44 1508.6 1281.11 1507.57 1280.72 1506.49 1280.27 1505.39L1274.43 1491.1C1273.74 1489.39 1273.14 1488.2 1272.64 1487.51 1272.13 1486.82 1271.59 1486.34 1271.02 1486.07 1270.45 1485.8 1269.57 1485.67 1268.37 1485.67L1265.85 1485.67 1262.12 1502.65C1261.73 1504.44 1261.48 1505.86 1261.36 1506.89 1261.24 1507.92 1261.18 1508.85 1261.18 1509.65 1261.18 1511 1261.52 1511.95 1262.19 1512.51 1262.87 1513.06 1264 1513.4 1265.58 1513.52L1265.09 1515.72 1247.12 1515.72 1247.61 1513.52C1248.75 1513.34 1249.61 1513.05 1250.17 1512.64 1250.74 1512.24 1251.22 1511.68 1251.61 1510.96 1252 1510.24 1252.36 1509.36 1252.69 1508.33 1253.02 1507.3 1253.51 1505.3 1254.17 1502.33L1261.81 1467.74C1262.47 1464.75 1262.8 1462.34 1262.8 1460.51 1262.8 1459.1 1262.45 1458.12 1261.74 1457.57 1261.04 1457.01 1259.92 1456.69 1258.4 1456.6Z"
       fill-rule="evenodd"
       id="path36" /><text
       fill="#000000"
       fill-opacity="0"
       font-family="Arial,Arial_MSFontService,sans-serif"
       font-size="61.3184"
       x="1247.12"
       y="1508.05"
       id="text36">ğ¾</text><path
       d="M1193.77 1068.13 1240.67 1068.13 1237.17 1083.95 1232.86 1083.95C1232.86 1081.04 1232.78 1078.86 1232.63 1077.41 1232.48 1075.96 1232.2 1074.85 1231.78 1074.08 1231.36 1073.32 1230.84 1072.8 1230.23 1072.51 1229.61 1072.23 1228.53 1072.09 1226.97 1072.09L1220.32 1072.09 1210.57 1116.38C1210.31 1117.55 1210.12 1118.47 1210.01 1119.16 1209.91 1119.85 1209.82 1120.58 1209.74 1121.34 1209.67 1122.11 1209.63 1122.79 1209.63 1123.39 1209.63 1124.31 1209.78 1125.04 1210.08 1125.57 1210.38 1126.09 1210.83 1126.47 1211.43 1126.71 1212.03 1126.95 1213.06 1127.13 1214.53 1127.25L1214.03 1129.45 1195.12 1129.45 1195.62 1127.25C1196.81 1127.07 1197.7 1126.83 1198.27 1126.53 1198.84 1126.23 1199.34 1125.77 1199.77 1125.14 1200.21 1124.51 1200.64 1123.52 1201.07 1122.17 1201.51 1120.83 1202.02 1118.79 1202.62 1116.06L1212.24 1072.09 1206.53 1072.09C1204.68 1072.09 1203.19 1072.36 1202.08 1072.89 1200.98 1073.43 1199.87 1074.44 1198.76 1075.9 1197.65 1077.37 1196.3 1079.83 1194.72 1083.27L1190.41 1083.27Z"
       fill-rule="evenodd"
       id="path37" /><text
       fill="#000000"
       fill-opacity="0"
       font-family="Arial,Arial_MSFontService,sans-serif"
       font-size="61.3184"
       x="1190.41"
       y="1121.79"
       id="text37">ğ‘‡</text><path
       d="M1247.54 1115.08 1249.14 1115.08 1244.3 1136.86C1243.99 1138.15 1243.78 1139.18 1243.66 1139.94 1243.54 1140.7 1243.48 1141.39 1243.48 1142 1243.48 1142.83 1243.65 1143.43 1243.99 1143.8 1244.32 1144.17 1244.83 1144.36 1245.51 1144.36 1245.9 1144.36 1246.29 1144.28 1246.69 1144.13 1247.08 1143.97 1247.5 1143.73 1247.95 1143.41 1248.39 1143.08 1248.88 1142.66 1249.42 1142.15 1249.95 1141.64 1250.55 1141.02 1251.2 1140.3L1253.43 1142.46C1252.29 1143.61 1251.26 1144.59 1250.33 1145.39 1249.41 1146.18 1248.53 1146.83 1247.7 1147.33 1246.87 1147.83 1246.06 1148.19 1245.26 1148.41 1244.47 1148.63 1243.62 1148.74 1242.73 1148.74 1241.9 1148.74 1241.15 1148.59 1240.49 1148.28 1239.82 1147.98 1239.25 1147.56 1238.77 1147.02 1238.29 1146.49 1237.92 1145.85 1237.66 1145.11 1237.39 1144.37 1237.26 1143.55 1237.26 1142.65 1237.26 1141.94 1237.35 1141.04 1237.53 1139.97 1237.7 1138.9 1237.92 1137.74 1238.2 1136.49 1238.47 1135.23 1238.77 1133.92 1239.1 1132.55 1239.42 1131.17 1239.74 1129.81 1240.06 1128.46 1240.38 1127.1 1240.66 1125.8 1240.91 1124.55 1241.16 1123.29 1241.34 1122.15 1241.45 1121.13 1241.5 1120.95 1241.52 1120.78 1241.52 1120.62 1241.52 1120.46 1241.52 1120.31 1241.52 1120.18 1241.47 1119.33 1241.17 1118.71 1240.62 1118.31 1240.06 1117.92 1239.07 1117.7 1237.66 1117.66L1238.05 1115.44ZM1245.64 1101.89 1252.18 1101.89 1250.58 1108.93 1244.1 1108.93Z"
       fill-rule="evenodd"
       id="path38" /><text
       fill="#000000"
       fill-opacity="0"
       font-family="Arial,Arial_MSFontService,sans-serif"
       font-size="46.8477"
       x="1237.26"
       y="1142.88"
       id="text38">ğ‘–</text><path
       d="M1603.16 382.014 1650.06 382.014 1646.56 397.827 1642.24 397.827C1642.24 394.922 1642.17 392.743 1642.02 391.291 1641.87 389.838 1641.58 388.73 1641.16 387.967 1640.75 387.203 1640.23 386.679 1639.61 386.394 1639 386.11 1637.92 385.968 1636.36 385.968L1629.71 385.968 1619.96 430.261C1619.69 431.429 1619.5 432.357 1619.4 433.046 1619.3 433.735 1619.21 434.461 1619.13 435.224 1619.06 435.988 1619.02 436.669 1619.02 437.268 1619.02 438.197 1619.17 438.923 1619.47 439.447 1619.77 439.971 1620.22 440.353 1620.81 440.593 1621.41 440.832 1622.45 441.012 1623.91 441.132L1623.42 443.333 1604.51 443.333 1605 441.132C1606.2 440.952 1607.08 440.712 1607.65 440.413 1608.22 440.113 1608.72 439.649 1609.16 439.02 1609.59 438.391 1610.03 437.403 1610.46 436.055 1610.89 434.708 1611.41 432.671 1612.01 429.946L1621.62 385.968 1615.92 385.968C1614.06 385.968 1612.58 386.237 1611.47 386.776 1610.36 387.315 1609.26 388.319 1608.15 389.786 1607.04 391.253 1605.69 393.709 1604.1 397.153L1599.79 397.153Z"
       fill-rule="evenodd"
       id="path39" /><text
       fill="#000000"
       fill-opacity="0"
       font-family="Arial,Arial_MSFontService,sans-serif"
       font-size="61.3184"
       x="1599.79"
       y="435.668"
       id="text39">ğ‘‡</text><path
       d="M1660.62 422.84C1659.09 422.84 1657.82 423.238 1656.79 424.035 1655.77 424.831 1654.95 425.997 1654.35 427.535 1653.76 429.073 1653.33 430.948 1653.08 433.162 1652.83 435.376 1652.7 437.889 1652.7 440.703 1652.7 443.952 1652.86 446.76 1653.18 449.127 1653.49 451.493 1653.98 453.44 1654.65 454.966 1655.31 456.493 1656.15 457.616 1657.15 458.336 1658.16 459.056 1659.35 459.416 1660.75 459.416 1662.06 459.416 1663.2 459.078 1664.19 458.401 1665.17 457.725 1665.98 456.673 1666.62 455.244 1667.27 453.816 1667.75 452.006 1668.08 449.814 1668.41 447.622 1668.57 445.032 1668.57 442.044 1668.57 438.685 1668.39 435.796 1668.03 433.375 1667.67 430.954 1667.16 428.964 1666.51 427.404 1665.85 425.845 1665.03 424.694 1664.04 423.953 1663.05 423.211 1661.91 422.84 1660.62 422.84ZM1660.75 419.667C1663.35 419.667 1665.57 420.152 1667.41 421.123 1669.25 422.093 1670.76 423.478 1671.92 425.278 1673.09 427.077 1673.95 429.274 1674.49 431.87 1675.04 434.465 1675.31 437.399 1675.31 440.67 1675.31 447.933 1674.02 453.423 1671.45 457.142 1668.87 460.861 1665.15 462.72 1660.26 462.72 1655.42 462.72 1651.82 460.964 1649.46 457.453 1647.11 453.941 1645.93 448.62 1645.93 441.488 1645.93 437.758 1646.3 434.531 1647.03 431.804 1647.76 429.078 1648.78 426.815 1650.1 425.016 1651.42 423.217 1652.99 421.875 1654.8 420.992 1656.61 420.109 1658.59 419.667 1660.75 419.667Z"
       fill-rule="evenodd"
       id="path40" /><text
       fill="#000000"
       fill-opacity="0"
       font-family="Arial,Arial_MSFontService,sans-serif"
       font-size="43.0527"
       x="1645.93"
       y="457.338"
       id="text40">0</text><path
       d="M253.948 400.838 300.846 400.838 297.342 416.651 293.03 416.651C293.03 413.746 292.955 411.567 292.805 410.114 292.655 408.662 292.371 407.554 291.952 406.79 291.532 406.027 291.016 405.502 290.402 405.218 289.788 404.933 288.702 404.791 287.145 404.791L280.497 404.791 270.749 449.084C270.479 450.252 270.292 451.181 270.187 451.869 270.082 452.558 269.992 453.284 269.918 454.048 269.843 454.812 269.805 455.493 269.805 456.092 269.805 457.02 269.955 457.747 270.254 458.271 270.554 458.795 271.003 459.177 271.602 459.416 272.201 459.656 273.234 459.835 274.702 459.955L274.208 462.156 255.295 462.156 255.79 459.955C256.988 459.776 257.871 459.536 258.44 459.237 259.009 458.937 259.511 458.473 259.945 457.844 260.379 457.215 260.813 456.227 261.248 454.879 261.682 453.531 262.198 451.495 262.797 448.77L272.411 404.791 266.706 404.791C264.849 404.791 263.366 405.061 262.258 405.6 261.15 406.139 260.042 407.142 258.934 408.61 257.826 410.077 256.478 412.533 254.891 415.977L250.579 415.977Z"
       fill-rule="evenodd"
       id="path41" /><text
       fill="#000000"
       fill-opacity="0"
       font-family="Arial,Arial_MSFontService,sans-serif"
       font-size="61.3184"
       x="250.579"
       y="454.492"
       id="text41">ğ‘‡</text><path
       d="M311.407 441.664C309.88 441.664 308.604 442.062 307.579 442.858 306.554 443.654 305.742 444.821 305.142 446.359 304.542 447.896 304.117 449.772 303.866 451.986 303.615 454.199 303.49 456.713 303.49 459.526 303.49 462.776 303.648 465.584 303.964 467.95 304.281 470.317 304.771 472.263 305.436 473.79 306.102 475.317 306.936 476.44 307.939 477.16 308.942 477.879 310.142 478.239 311.538 478.239 312.846 478.239 313.991 477.901 314.973 477.225 315.954 476.549 316.767 475.497 317.41 474.068 318.054 472.64 318.539 470.829 318.866 468.637 319.193 466.446 319.357 463.856 319.357 460.868 319.357 457.509 319.177 454.619 318.817 452.198 318.457 449.777 317.95 447.787 317.296 446.228 316.641 444.668 315.818 443.518 314.826 442.776 313.833 442.035 312.694 441.664 311.407 441.664ZM311.538 438.491C314.133 438.491 316.352 438.976 318.195 439.947 320.038 440.917 321.543 442.302 322.71 444.101 323.877 445.901 324.733 448.098 325.278 450.693 325.823 453.289 326.096 456.222 326.096 459.494 326.096 466.756 324.809 472.247 322.236 475.966 319.662 479.684 315.932 481.543 311.047 481.543 306.205 481.543 302.607 479.788 300.251 476.276 297.896 472.765 296.718 467.443 296.718 460.311 296.718 456.582 297.083 453.354 297.814 450.628 298.545 447.902 299.57 445.639 300.889 443.84 302.209 442.04 303.773 440.699 305.584 439.816 307.394 438.932 309.379 438.491 311.538 438.491Z"
       fill-rule="evenodd"
       id="path42" /><text
       fill="#000000"
       fill-opacity="0"
       font-family="Arial,Arial_MSFontService,sans-serif"
       font-size="43.0527"
       x="296.718"
       y="476.162"
       id="text42">0</text><path
       d="M366.923 442.211 422.267 442.211 422.267 448.186 366.923 448.186ZM366.923 423.569 422.267 423.569 422.267 429.543 366.923 429.543Z"
       fill-rule="evenodd"
       id="path43" /><text
       fill="#000000"
       fill-opacity="0"
       font-family="Arial,Arial_MSFontService,sans-serif"
       font-size="24.6172"
       x="366.923"
       y="445.109"
       id="text43">=</text><path
       d="M371.203 534.931C369.136 534.931 367.407 535.545 366.014 536.773 364.622 538.001 363.499 539.768 362.645 542.074 361.792 544.38 361.185 547.188 360.826 550.497 360.466 553.806 360.287 557.542 360.287 561.705 360.287 571.468 361.193 578.633 363.004 583.2 364.816 587.767 367.624 590.051 371.427 590.051 375.051 590.051 377.739 587.902 379.491 583.604 381.243 579.307 382.119 572.651 382.119 563.636 382.119 556.748 381.67 551.171 380.771 546.903 379.873 542.635 378.622 539.573 377.02 537.717 375.418 535.86 373.479 534.931 371.203 534.931ZM320.203 534.931C318.136 534.931 316.407 535.545 315.014 536.773 313.622 538.001 312.499 539.768 311.645 542.074 310.792 544.38 310.185 547.188 309.826 550.497 309.466 553.806 309.287 557.542 309.287 561.705 309.287 571.468 310.193 578.633 312.004 583.2 313.816 587.767 316.624 590.051 320.427 590.051 324.051 590.051 326.739 587.902 328.491 583.604 330.243 579.307 331.119 572.651 331.119 563.636 331.119 556.748 330.67 551.171 329.771 546.903 328.873 542.635 327.622 539.573 326.02 537.717 324.418 535.86 322.479 534.931 320.203 534.931ZM269.203 534.931C267.136 534.931 265.407 535.545 264.014 536.773 262.622 538.001 261.499 539.768 260.645 542.074 259.792 544.38 259.185 547.188 258.826 550.497 258.466 553.806 258.287 557.542 258.287 561.705 258.287 571.468 259.193 578.633 261.004 583.2 262.816 587.767 265.624 590.051 269.427 590.051 273.051 590.051 275.739 587.902 277.491 583.604 279.243 579.307 280.119 572.651 280.119 563.636 280.119 556.748 279.67 551.171 278.771 546.903 277.873 542.635 276.622 539.573 275.02 537.717 273.418 535.86 271.479 534.931 269.203 534.931ZM371.427 531.113C377.986 531.113 382.867 533.644 386.072 538.705 389.276 543.766 390.879 551.418 390.879 561.66 390.879 572.261 389.164 580.28 385.735 585.716 382.306 591.151 377.297 593.869 370.709 593.869 364.24 593.869 359.426 591.323 356.266 586.232 353.107 581.141 351.527 573.414 351.527 563.052 351.527 557.542 352.014 552.78 352.987 548.767 353.96 544.754 355.323 541.438 357.075 538.817 358.827 536.197 360.931 534.258 363.386 533 365.842 531.742 368.522 531.113 371.427 531.113ZM320.427 531.113C326.986 531.113 331.867 533.644 335.072 538.705 338.276 543.766 339.879 551.418 339.879 561.66 339.879 572.261 338.164 580.28 334.735 585.716 331.306 591.151 326.297 593.869 319.709 593.869 313.24 593.869 308.426 591.323 305.266 586.232 302.107 581.141 300.527 573.414 300.527 563.052 300.527 557.542 301.014 552.78 301.987 548.767 302.96 544.754 304.323 541.438 306.075 538.817 307.827 536.197 309.931 534.258 312.386 533 314.842 531.742 317.522 531.113 320.427 531.113ZM269.427 531.113C275.986 531.113 280.867 533.644 284.072 538.705 287.276 543.766 288.879 551.418 288.879 561.66 288.879 572.261 287.164 580.28 283.735 585.716 280.306 591.151 275.297 593.869 268.709 593.869 262.24 593.869 257.426 591.323 254.266 586.232 251.107 581.141 249.527 573.414 249.527 563.052 249.527 557.542 250.014 552.78 250.987 548.767 251.96 544.754 253.323 541.438 255.075 538.817 256.827 536.197 258.931 534.258 261.386 533 263.842 531.742 266.522 531.113 269.427 531.113ZM221.752 531.113 224.222 531.113C224.043 533.988 223.953 537.971 223.953 543.062L223.953 581.426C223.953 583.163 224.05 584.473 224.245 585.356 224.439 586.24 224.784 586.958 225.278 587.512 225.772 588.066 226.483 588.501 227.412 588.815 228.34 589.13 229.508 589.369 230.916 589.534 232.323 589.699 234.18 589.811 236.486 589.871L236.486 593.15 203.289 593.15 203.289 589.871C206.613 589.721 208.986 589.519 210.409 589.264 211.831 589.01 212.917 588.628 213.666 588.119 214.414 587.61 214.961 586.891 215.305 585.963 215.65 585.034 215.822 583.522 215.822 581.426L215.822 544.994C215.822 543.796 215.612 542.92 215.193 542.366 214.774 541.812 214.16 541.535 213.351 541.535 212.393 541.535 211.03 542.029 209.263 543.017 207.496 544.006 205.31 545.368 202.705 547.105L200.728 543.646Z"
       fill-rule="evenodd"
       id="path44" /><text
       fill="#000000"
       fill-opacity="0"
       font-family="Arial,Arial_MSFontService,sans-serif"
       font-size="62.7559"
       x="200.728"
       y="586.024"
       id="text44">1000</text><path
       d="M431.073 531.832 449.041 531.832 448.547 534.033C447.409 534.273 446.593 534.542 446.099 534.842 445.605 535.141 445.163 535.59 444.774 536.189 444.384 536.788 443.98 537.724 443.561 538.997 443.142 540.27 442.617 542.344 441.989 545.219L438.799 559.549 440.282 559.549C441.539 559.549 442.685 559.339 443.718 558.92 444.751 558.5 445.957 557.737 447.334 556.629 448.712 555.521 450.906 553.484 453.915 550.519 456.925 547.554 459.066 545.301 460.339 543.759 461.612 542.216 462.54 540.884 463.124 539.76 463.708 538.637 464 537.612 464 536.683 464 535.935 463.701 535.328 463.102 534.864 462.503 534.4 461.649 534.123 460.541 534.033L461.035 531.832 480.307 531.832 479.813 534.033C478.615 534.213 477.26 534.834 475.747 535.897 474.235 536.96 471.922 539.034 468.807 542.119L451.377 559.099 460.946 582.099C461.934 584.465 462.75 586.172 463.394 587.22 464.038 588.269 464.809 589.1 465.707 589.714 466.606 590.328 467.714 590.739 469.032 590.949L468.537 593.15 451.198 593.15 451.692 590.949C453.309 590.799 454.117 590.081 454.117 588.793 454.117 587.984 453.953 587.063 453.623 586.03 453.294 584.997 452.905 583.926 452.455 582.818L446.616 568.533C445.927 566.826 445.328 565.628 444.819 564.939 444.31 564.25 443.77 563.771 443.201 563.502 442.632 563.232 441.749 563.097 440.551 563.097L438.035 563.097 434.307 580.078C433.918 581.875 433.663 583.29 433.543 584.323 433.423 585.356 433.364 586.277 433.364 587.086 433.364 588.433 433.7 589.384 434.374 589.938 435.048 590.492 436.179 590.829 437.766 590.949L437.272 593.15 419.303 593.15 419.797 590.949C420.935 590.769 421.789 590.477 422.358 590.073 422.927 589.669 423.406 589.107 423.795 588.388 424.185 587.67 424.544 586.794 424.873 585.76 425.203 584.727 425.697 582.728 426.356 579.763L433.992 545.174C434.651 542.179 434.981 539.768 434.981 537.941 434.981 536.534 434.629 535.553 433.925 534.999 433.221 534.445 432.106 534.123 430.578 534.033Z"
       fill-rule="evenodd"
       id="path45" /><text
       fill="#000000"
       fill-opacity="0"
       font-family="Arial,Arial_MSFontService,sans-serif"
       font-size="61.3184"
       x="419.303"
       y="585.485"
       id="text45">ğ¾</text><path
       d="M124.263 885.648C126.179 885.648 127.692 886.292 128.8 887.58 129.908 888.867 130.462 890.604 130.462 892.791 130.462 895.157 129.998 898.106 129.069 901.64L127.093 909.412C126.584 911.388 126.217 912.931 125.992 914.039 125.767 915.147 125.603 916.105 125.498 916.914 125.393 917.722 125.341 918.396 125.341 918.935 125.341 921.002 125.685 922.492 126.374 923.405 127.063 924.318 128.186 924.775 129.743 924.775 131.001 924.775 132.356 924.273 133.808 923.27 135.261 922.267 136.803 920.755 138.435 918.733 140.068 916.712 141.378 914.75 142.366 912.848 143.354 910.947 144.163 908.603 144.792 905.818L149.059 886.367 156.831 886.367 150.272 914.847C149.613 917.722 149.284 919.938 149.284 921.496 149.284 922.694 149.479 923.562 149.868 924.101 150.257 924.64 150.871 924.91 151.71 924.91 152.608 924.91 153.567 924.543 154.585 923.809 155.603 923.076 157.041 921.675 158.897 919.609L161.458 922.125C158.733 925.03 156.412 927.081 154.495 928.279 152.578 929.477 150.542 930.076 148.386 930.076 146.529 930.076 145.046 929.462 143.938 928.234 142.83 927.006 142.276 925.374 142.276 923.338 142.276 921.72 142.636 919.953 143.354 918.037L142.815 917.857C139.85 922.02 137.043 925.089 134.392 927.066 131.742 929.043 129.024 930.031 126.239 930.031 123.454 930.031 121.313 929.23 119.815 927.628 118.318 926.025 117.569 923.802 117.569 920.957 117.569 919.07 118.003 916.39 118.872 912.916L121.792 901.146C122.6 897.882 123.005 895.576 123.005 894.228 123.005 893.03 122.81 892.162 122.421 891.623 122.031 891.084 121.417 890.814 120.579 890.814 119.651 890.814 118.67 891.196 117.637 891.96 116.603 892.723 115.188 894.108 113.391 896.115L110.831 893.599C113.376 891.024 115.293 889.257 116.581 888.298 117.869 887.34 119.104 886.659 120.287 886.255 121.47 885.85 122.795 885.648 124.263 885.648Z"
       fill-rule="evenodd"
       id="path46" /><text
       fill="#000000"
       fill-opacity="0"
       font-family="Arial,Arial_MSFontService,sans-serif"
       font-size="44.4277"
       x="110.831"
       y="924.522"
       id="text46">ğ‘¢</text><path
       d="M181.861 908.865C180.334 908.865 179.058 909.263 178.033 910.059 177.008 910.855 176.196 912.022 175.596 913.559 174.996 915.097 174.571 916.972 174.32 919.186 174.069 921.4 173.944 923.913 173.944 926.727 173.944 929.977 174.102 932.785 174.418 935.151 174.735 937.517 175.225 939.464 175.891 940.991 176.556 942.517 177.39 943.641 178.393 944.36 179.396 945.08 180.596 945.44 181.992 945.44 183.3 945.44 184.445 945.102 185.427 944.426 186.408 943.75 187.221 942.697 187.864 941.269 188.508 939.84 188.993 938.03 189.32 935.838 189.647 933.646 189.811 931.056 189.811 928.068 189.811 924.71 189.631 921.82 189.271 919.399 188.911 916.978 188.404 914.988 187.75 913.428 187.095 911.869 186.272 910.718 185.28 909.977 184.287 909.235 183.148 908.865 181.861 908.865ZM181.992 905.691C184.587 905.691 186.806 906.177 188.649 907.147 190.492 908.118 191.997 909.503 193.164 911.302 194.331 913.101 195.187 915.299 195.732 917.894 196.277 920.489 196.55 923.423 196.55 926.694 196.55 933.957 195.263 939.448 192.69 943.166 190.116 946.885 186.387 948.744 181.501 948.744 176.659 948.744 173.061 946.988 170.705 943.477 168.35 939.966 167.172 934.644 167.172 927.512 167.172 923.783 167.537 920.555 168.268 917.828 168.999 915.102 170.024 912.839 171.343 911.04 172.663 909.241 174.228 907.9 176.038 907.016 177.848 906.133 179.833 905.691 181.992 905.691Z"
       fill-rule="evenodd"
       id="path47" /><text
       fill="#000000"
       fill-opacity="0"
       font-family="Arial,Arial_MSFontService,sans-serif"
       font-size="43.0527"
       x="167.172"
       y="943.362"
       id="text47">0</text><path
       d="M602.145 1618.77 2217.64 1618.77 2217.64 1630.23 602.145 1630.23ZM607.875 1641.69 573.5 1624.5 607.875 1607.31ZM2211.91 1607.31 2246.28 1624.5 2211.91 1641.69Z"
       id="path48" /><path
       d="M923.007 1664.78 940.976 1664.78 940.482 1666.98C939.344 1667.22 938.528 1667.49 938.034 1667.79 937.539 1668.09 937.098 1668.54 936.708 1669.13 936.319 1669.73 935.915 1670.67 935.496 1671.94 935.076 1673.22 934.552 1675.29 933.923 1678.16L924.31 1721.96 935.361 1721.96C937.367 1721.96 938.947 1721.77 940.1 1721.38 941.253 1720.99 942.346 1720.28 943.379 1719.25 944.413 1718.21 945.423 1716.81 946.412 1715.05 947.4 1713.28 948.403 1711.08 949.421 1708.44L953.779 1708.44 949.242 1726.1 911.238 1726.1 911.732 1723.89C912.87 1723.71 913.723 1723.42 914.292 1723.02 914.861 1722.61 915.341 1722.05 915.73 1721.33 916.119 1720.62 916.479 1719.74 916.808 1718.71 917.137 1717.67 917.632 1715.67 918.29 1712.71L925.927 1678.12C926.586 1675.12 926.915 1672.71 926.915 1670.89 926.915 1669.48 926.564 1668.5 925.86 1667.94 925.156 1667.39 924.04 1667.07 922.513 1666.98Z"
       fill-rule="evenodd"
       id="path49" /><text
       fill="#000000"
       fill-opacity="0"
       font-family="Arial,Arial_MSFontService,sans-serif"
       font-size="61.3184"
       x="911.238"
       y="1718.43"
       id="text49">ğ¿</text><path
       d="M991.408 1706.15 1046.75 1706.15 1046.75 1712.13 991.408 1712.13ZM991.408 1687.51 1046.75 1687.51 1046.75 1693.48 991.408 1693.48Z"
       fill-rule="evenodd"
       id="path50" /><text
       fill="#000000"
       fill-opacity="0"
       font-family="Arial,Arial_MSFontService,sans-serif"
       font-size="24.6172"
       x="991.408"
       y="1709.05"
       id="text50">=</text><path
       d="M1104.4 1667.88C1102.33 1667.88 1100.6 1668.49 1099.21 1669.72 1097.81 1670.95 1096.69 1672.71 1095.84 1675.02 1094.98 1677.33 1094.38 1680.13 1094.02 1683.44 1093.66 1686.75 1093.48 1690.49 1093.48 1694.65 1093.48 1704.41 1094.39 1711.58 1096.2 1716.15 1098.01 1720.71 1100.82 1723 1104.62 1723 1108.24 1723 1110.93 1720.85 1112.68 1716.55 1114.44 1712.25 1115.31 1705.6 1115.31 1696.58 1115.31 1689.69 1114.86 1684.12 1113.96 1679.85 1113.07 1675.58 1111.82 1672.52 1110.21 1670.66 1108.61 1668.81 1106.67 1667.88 1104.4 1667.88ZM1104.62 1664.06C1111.18 1664.06 1116.06 1666.59 1119.26 1671.65 1122.47 1676.71 1124.07 1684.36 1124.07 1694.61 1124.07 1705.21 1122.36 1713.23 1118.93 1718.66 1115.5 1724.1 1110.49 1726.81 1103.9 1726.81 1097.43 1726.81 1092.62 1724.27 1089.46 1719.18 1086.3 1714.09 1084.72 1706.36 1084.72 1696 1084.72 1690.49 1085.21 1685.73 1086.18 1681.71 1087.15 1677.7 1088.52 1674.38 1090.27 1671.76 1092.02 1669.14 1094.12 1667.2 1096.58 1665.95 1099.04 1664.69 1101.72 1664.06 1104.62 1664.06Z"
       fill-rule="evenodd"
       id="path51" /><text
       fill="#000000"
       fill-opacity="0"
       font-family="Arial,Arial_MSFontService,sans-serif"
       font-size="62.7559"
       x="1084.72"
       y="1718.97"
       id="text51">0</text><path
       d="M1134.81 1715.67 1143.89 1715.67 1143.89 1726.1 1134.81 1726.1Z"
       fill-rule="evenodd"
       id="path52" /><text
       fill="#000000"
       fill-opacity="0"
       font-family="Arial,Arial_MSFontService,sans-serif"
       font-size="10.4219"
       x="1134.81"
       y="1724.79"
       id="text52">.</text><path
       d="M1174.65 1664.06C1180.22 1664.06 1184.43 1665.28 1187.27 1667.72 1190.12 1670.16 1191.54 1673.7 1191.54 1678.34 1191.54 1679.93 1191.38 1681.39 1191.07 1682.72 1190.76 1684.06 1190.26 1685.37 1189.59 1686.68 1188.91 1687.98 1188.01 1689.38 1186.87 1690.88 1185.73 1692.37 1184.47 1693.89 1183.1 1695.44 1181.72 1696.98 1179.34 1699.55 1175.95 1703.14 1170.26 1709.16 1166.09 1714.42 1163.42 1718.91L1180.36 1718.91C1181.82 1718.91 1183.01 1718.82 1183.9 1718.64 1184.8 1718.46 1185.52 1718.16 1186.06 1717.74 1186.6 1717.32 1187.03 1716.77 1187.34 1716.1 1187.66 1715.43 1188.05 1714.39 1188.53 1712.98L1192.35 1712.98 1191.59 1726.1 1154.62 1726.1 1154.62 1723.94C1155.9 1720.8 1157.64 1717.58 1159.83 1714.28 1162.01 1710.99 1165.11 1707.11 1169.13 1702.65 1172.6 1698.81 1175.1 1695.91 1176.63 1693.93 1178.3 1691.78 1179.55 1689.91 1180.38 1688.34 1181.2 1686.77 1181.79 1685.28 1182.15 1683.89 1182.51 1682.5 1182.69 1681.1 1182.69 1679.69 1182.69 1677.45 1182.33 1675.46 1181.61 1673.74 1180.9 1672.02 1179.79 1670.66 1178.31 1669.67 1176.83 1668.69 1174.97 1668.19 1172.72 1668.19 1167.12 1668.19 1163.35 1671.31 1161.4 1677.54L1155.96 1677.54 1155.96 1668.91C1159.59 1667.2 1162.98 1665.97 1166.14 1665.2 1169.3 1664.44 1172.14 1664.06 1174.65 1664.06Z"
       fill-rule="evenodd"
       id="path53" /><text
       fill="#000000"
       fill-opacity="0"
       font-family="Arial,Arial_MSFontService,sans-serif"
       font-size="62.0371"
       x="1154.62"
       y="1718.34"
       id="text53">2</text><path
       d="M1234.01 1682.39C1235.9 1682.39 1237.39 1683.01 1238.48 1684.25 1239.58 1685.49 1240.12 1687.12 1240.12 1689.13 1240.12 1690.77 1239.78 1692.52 1239.09 1694.38L1239.63 1694.56C1242.38 1690.46 1245.12 1687.41 1247.85 1685.42 1250.57 1683.43 1253.33 1682.43 1256.11 1682.43 1258.99 1682.43 1261.18 1683.25 1262.67 1684.88 1264.17 1686.51 1264.92 1688.87 1264.92 1691.96L1264.92 1692.58C1264.92 1692.79 1264.9 1693.02 1264.87 1693.26 1267.45 1689.6 1270.02 1686.89 1272.58 1685.1 1275.14 1683.32 1277.8 1682.43 1280.55 1682.43 1283.31 1682.43 1285.43 1683.23 1286.93 1684.81 1288.43 1686.4 1289.18 1688.63 1289.18 1691.51 1289.18 1693.39 1288.74 1696.07 1287.87 1699.55L1284.95 1711.32C1284.15 1714.58 1283.74 1716.89 1283.74 1718.23 1283.74 1719.43 1283.94 1720.3 1284.33 1720.84 1284.71 1721.38 1285.33 1721.65 1286.17 1721.65 1287.07 1721.65 1288.02 1721.28 1289.04 1720.55 1290.06 1719.81 1291.5 1718.41 1293.35 1716.35L1295.92 1718.86C1293.34 1721.59 1291.09 1723.6 1289.18 1724.88 1287.26 1726.17 1285.07 1726.81 1282.62 1726.81 1280.67 1726.81 1279.11 1726.12 1277.95 1724.73 1276.78 1723.33 1276.19 1721.56 1276.19 1719.4 1276.19 1717.46 1276.69 1714.6 1277.68 1710.82L1279.65 1703.05C1280.37 1700.24 1280.84 1698.15 1281.07 1696.81 1281.29 1695.46 1281.41 1694.37 1281.41 1693.53 1281.41 1691.46 1281.06 1689.97 1280.37 1689.06 1279.68 1688.14 1278.56 1687.69 1277 1687.69 1275.75 1687.69 1274.4 1688.16 1272.96 1689.1 1271.52 1690.05 1270.01 1691.51 1268.42 1693.51 1266.84 1695.5 1265.54 1697.46 1264.54 1699.39 1263.53 1701.32 1262.73 1703.68 1262.13 1706.46L1258.05 1726.1 1250.27 1726.1 1255.44 1703.28C1256.07 1700.49 1256.5 1698.43 1256.72 1697.1 1256.95 1695.77 1257.06 1694.62 1257.06 1693.66 1257.06 1691.51 1256.68 1689.97 1255.91 1689.06 1255.15 1688.14 1253.96 1687.69 1252.34 1687.69 1251.2 1687.69 1249.91 1688.16 1248.46 1689.1 1247 1690.05 1245.45 1691.56 1243.81 1693.64 1242.16 1695.72 1240.87 1697.72 1239.94 1699.64 1239.01 1701.55 1238.24 1703.89 1237.61 1706.64L1233.34 1726.1 1225.57 1726.1 1232.13 1697.62C1232.79 1694.74 1233.11 1692.52 1233.11 1690.97 1233.11 1689.77 1232.92 1688.9 1232.53 1688.36 1232.14 1687.82 1231.53 1687.55 1230.69 1687.55 1229.76 1687.55 1228.78 1687.93 1227.75 1688.7 1226.71 1689.46 1225.3 1690.85 1223.5 1692.85L1220.94 1690.34C1223.58 1687.58 1225.84 1685.57 1227.75 1684.3 1229.65 1683.02 1231.74 1682.39 1234.01 1682.39Z"
       fill-rule="evenodd"
       id="path54" /><text
       fill="#000000"
       fill-opacity="0"
       font-family="Arial,Arial_MSFontService,sans-serif"
       font-size="44.4277"
       x="1220.94"
       y="1721.26"
       id="text54">ğ‘š</text></g></svg>
