<?xml version="1.0" encoding="UTF-8" standalone="no"?>
<svg
   xmlns:dc="http://purl.org/dc/elements/1.1/"
   xmlns:cc="http://creativecommons.org/ns#"
   xmlns:rdf="http://www.w3.org/1999/02/22-rdf-syntax-ns#"
   xmlns:svg="http://www.w3.org/2000/svg"
   xmlns="http://www.w3.org/2000/svg"
   xmlns:sodipodi="http://sodipodi.sourceforge.net/DTD/sodipodi-0.dtd"
   xmlns:inkscape="http://www.inkscape.org/namespaces/inkscape"
   version="1.1"
   width="1920"
   height="472.39212"
   id="svg2"
   inkscape:version="1.0.2 (e86c870879, 2021-01-15, custom)"
   sodipodi:docname="coconut-banner.svg">
  <metadata
     id="metadata34">
    <rdf:RDF>
      <cc:Work
         rdf:about="">
        <dc:format>image/svg+xml</dc:format>
        <dc:type
           rdf:resource="http://purl.org/dc/dcmitype/StillImage" />
        <dc:title />
      </cc:Work>
    </rdf:RDF>
  </metadata>
  <sodipodi:namedview
     pagecolor="#ffffff"
     bordercolor="#666666"
     borderopacity="1"
     objecttolerance="10"
     gridtolerance="10"
     guidetolerance="10"
     inkscape:pageopacity="0"
     inkscape:pageshadow="2"
     inkscape:window-width="1920"
     inkscape:window-height="1017"
     id="namedview32"
     showgrid="false"
     inkscape:zoom="0.58926636"
     inkscape:cx="767.60111"
     inkscape:cy="109.07222"
     inkscape:window-x="-8"
     inkscape:window-y="-8"
     inkscape:window-maximized="1"
     inkscape:current-layer="svg2"
     inkscape:snap-page="true"
     inkscape:document-rotation="0"
     lock-margins="true"
     units="px"
     fit-margin-top="10"
     fit-margin-left="10"
     fit-margin-right="10"
     fit-margin-bottom="10" />
  <defs
     id="defs4">
    <inkscape:perspective
       sodipodi:type="inkscape:persp3d"
       inkscape:vp_x="0 : 71.907901 : 1"
       inkscape:vp_y="0 : 1000 : 0"
       inkscape:vp_z="476.01562 : 71.907901 : 1"
       inkscape:persp3d-origin="238.00781 : 53.017927 : 1"
       id="perspective36" />
  </defs>
  <rect
     style="fill:#ffffff;stroke:none;stroke-width:1.00157;stroke-linecap:square"
     id="rect477"
     width="1920"
     height="472.39212"
     x="0"
     y="0" />
  <g
     transform="matrix(3.9914656,0,0,3.9914656,-388.1888,-1314.9974)"
     id="layer1">
    <g
       style="font-style:normal;font-variant:normal;font-weight:normal;font-stretch:normal;font-size:10px;line-height:125%;font-family:Monospace;-inkscape-font-specification:Monospace;text-align:start;writing-mode:lr-tb;text-anchor:start;fill:#000000;fill-opacity:1;stroke:none"
       id="text2816">
      <path
         d="m 99.760048,338.23691 v -6.2793 h 3.500972 v 0.83984 h -2.71972 v 5.43946 h -0.781252"
         id="path2842" />
      <path
         d="m 103.06083,332.79745 v -0.83984 h 6.21582 v 0.83984 h -6.21582"
         id="path2844" />
      <path
         d="m 109.07645,332.79745 v -0.83984 h 6.21582 v 0.83984 h -6.21582"
         id="path2846" />
      <path
         d="m 115.09208,332.79745 v -0.83984 h 6.21582 v 0.83984 h -6.21582"
         id="path2848" />
      <path
         d="m 121.1077,332.79745 v -0.83984 h 6.21582 v 0.83984 h -6.21582"
         id="path2850" />
      <path
         d="m 127.12333,332.79745 v -0.83984 h 6.21582 v 0.83984 h -6.21582"
         id="path2852" />
      <path
         d="m 133.13895,332.79745 v -0.83984 h 6.21582 v 0.83984 h -6.21582"
         id="path2854" />
      <path
         d="m 139.15458,332.79745 v -0.83984 h 6.21582 v 0.83984 h -6.21582"
         id="path2856" />
      <path
         d="m 145.1702,332.79745 v -0.83984 h 6.21582 v 0.83984 h -6.21582"
         id="path2858" />
      <path
         d="m 151.18583,332.79745 v -0.83984 h 6.21582 v 0.83984 h -6.21582"
         id="path2860" />
      <path
         d="m 157.20145,332.79745 v -0.83984 h 6.21582 v 0.83984 h -6.21582"
         id="path2862" />
      <path
         d="m 163.21708,332.79745 v -0.83984 h 6.21582 v 0.83984 h -6.21582"
         id="path2864" />
      <path
         d="m 169.2327,332.79745 v -0.83984 h 6.21582 v 0.83984 h -6.21582"
         id="path2866" />
      <path
         d="m 175.24833,332.79745 v -0.83984 h 6.21582 v 0.83984 h -6.21582"
         id="path2868" />
      <path
         d="m 181.26395,332.79745 v -0.83984 h 6.21582 v 0.83984 h -6.21582"
         id="path2870" />
      <path
         d="m 187.27958,332.79745 v -0.83984 h 6.21582 v 0.83984 h -6.21582"
         id="path2872" />
      <path
         d="m 193.2952,332.79745 v -0.83984 h 6.21582 v 0.83984 h -6.21582"
         id="path2874" />
      <path
         d="m 199.31083,332.79745 v -0.83984 h 6.21582 v 0.83984 h -6.21582"
         id="path2876" />
      <path
         d="m 205.32645,332.79745 v -0.83984 h 6.21582 v 0.83984 h -6.21582"
         id="path2878" />
      <path
         d="m 211.34208,332.79745 v -0.83984 h 6.21582 v 0.83984 h -6.21582"
         id="path2880" />
      <path
         d="m 217.3577,332.79745 v -0.83984 h 6.21582 v 0.83984 h -6.21582"
         id="path2882" />
      <path
         d="m 223.37333,332.79745 v -0.83984 h 6.21582 v 0.83984 h -6.21582"
         id="path2884" />
      <path
         d="m 229.38895,332.79745 v -0.83984 h 6.21582 v 0.83984 h -6.21582"
         id="path2886" />
      <path
         d="m 235.40458,332.79745 v -0.83984 h 6.21582 v 0.83984 h -6.21582"
         id="path2888" />
      <path
         d="m 241.4202,332.79745 v -0.83984 h 6.21582 v 0.83984 h -6.21582"
         id="path2890" />
      <path
         d="m 247.43583,332.79745 v -0.83984 h 6.21582 v 0.83984 h -6.21582"
         id="path2892" />
      <path
         d="m 253.45145,332.79745 v -0.83984 h 6.21582 v 0.83984 h -6.21582"
         id="path2894" />
      <path
         d="m 259.46708,332.79745 v -0.83984 h 6.21582 v 0.83984 h -6.21582"
         id="path2896" />
      <path
         d="m 265.4827,332.79745 v -0.83984 h 6.21582 v 0.83984 h -6.21582"
         id="path2898" />
      <path
         d="m 271.49833,332.79745 v -0.83984 h 6.21582 v 0.83984 h -6.21582"
         id="path2900" />
      <path
         d="m 277.51395,332.79745 v -0.83984 h 6.21582 v 0.83984 h -6.21582"
         id="path2902" />
      <path
         d="m 283.52958,332.79745 v -0.83984 h 6.21582 v 0.83984 h -6.21582"
         id="path2904" />
      <path
         d="m 289.5452,332.79745 v -0.83984 h 6.21582 v 0.83984 h -6.21582"
         id="path2906" />
      <path
         d="m 295.56083,332.79745 v -0.83984 h 6.21582 v 0.83984 h -6.21582"
         id="path2908" />
      <path
         d="m 301.57645,332.79745 v -0.83984 h 6.21582 v 0.83984 h -6.21582"
         id="path2910" />
      <path
         d="m 307.59208,332.79745 v -0.83984 h 6.21582 v 0.83984 h -6.21582"
         id="path2912" />
      <path
         d="m 313.6077,332.79745 v -0.83984 h 6.21582 v 0.83984 h -6.21582"
         id="path2914" />
      <path
         d="m 319.62333,332.79745 v -0.83984 h 6.21582 v 0.83984 h -6.21582"
         id="path2916" />
      <path
         d="m 325.63895,332.79745 v -0.83984 h 6.21582 v 0.83984 h -6.21582"
         id="path2918" />
      <path
         d="m 331.65458,332.79745 v -0.83984 h 6.21582 v 0.83984 h -6.21582"
         id="path2920" />
      <path
         d="m 337.6702,332.79745 v -0.83984 h 6.21582 v 0.83984 h -6.21582"
         id="path2922" />
      <path
         d="m 343.68583,332.79745 v -0.83984 h 6.21582 v 0.83984 h -6.21582"
         id="path2924" />
      <path
         d="m 349.70145,332.79745 v -0.83984 h 6.21582 v 0.83984 h -6.21582"
         id="path2926" />
      <path
         d="m 355.71708,332.79745 v -0.83984 h 6.21582 v 0.83984 h -6.21582"
         id="path2928" />
      <path
         d="m 361.7327,332.79745 v -0.83984 h 6.21582 v 0.83984 h -6.21582"
         id="path2930" />
      <path
         d="m 367.74833,332.79745 v -0.83984 h 6.21582 v 0.83984 h -6.21582"
         id="path2932" />
      <path
         d="m 373.76395,332.79745 v -0.83984 h 6.21582 v 0.83984 h -6.21582"
         id="path2934" />
      <path
         d="m 379.77958,332.79745 v -0.83984 h 6.21582 v 0.83984 h -6.21582"
         id="path2936" />
      <path
         d="m 385.7952,332.79745 v -0.83984 h 6.21582 v 0.83984 h -6.21582"
         id="path2938" />
      <path
         d="m 391.81083,332.79745 v -0.83984 h 6.21582 v 0.83984 h -6.21582"
         id="path2940" />
      <path
         d="m 397.82645,332.79745 v -0.83984 h 6.21582 v 0.83984 h -6.21582"
         id="path2942" />
      <path
         d="m 403.84208,332.79745 v -0.83984 h 6.21582 v 0.83984 h -6.21582"
         id="path2944" />
      <path
         d="m 409.8577,332.79745 v -0.83984 h 6.21582 v 0.83984 h -6.21582"
         id="path2946" />
      <path
         d="m 415.87333,332.79745 v -0.83984 h 6.21582 v 0.83984 h -6.21582"
         id="path2948" />
      <path
         d="m 421.88895,332.79745 v -0.83984 h 6.21582 v 0.83984 h -6.21582"
         id="path2950" />
      <path
         d="m 427.90458,332.79745 v -0.83984 h 6.21582 v 0.83984 h -6.21582"
         id="path2952" />
      <path
         d="m 433.9202,332.79745 v -0.83984 h 6.21582 v 0.83984 h -6.21582"
         id="path2954" />
      <path
         d="m 439.93583,332.79745 v -0.83984 h 6.21582 v 0.83984 h -6.21582"
         id="path2956" />
      <path
         d="m 452.06962,337.1871 v 0.39063 h -6.02051 v -0.39063 h 6.02051"
         style="fill:#8ae234;fill-opacity:1"
         id="path2958" />
      <path
         d="m 458.08524,337.1871 v 0.39063 h -6.0205 v -0.39063 h 6.0205"
         style="fill:#8ae234;fill-opacity:1"
         id="path2960" />
      <path
         d="m 470.11649,337.1871 v 0.39063 h -6.0205 v -0.39063 h 6.0205"
         style="fill:#8ae234;fill-opacity:1"
         id="path2962" />
      <path
         d="m 472.49931,333.73007 h 1.23046 v 1.48926 h -1.23046 v -1.48926"
         style="fill:#8ae234;fill-opacity:1"
         id="path2964" />
      <path
         d="m 477.86552,332.07968 h 2.54394 v 0.80078 h -2.54394 v -0.80078"
         style="fill:#8ae234;fill-opacity:1"
         id="path2966" />
      <path
         d="m 483.88114,332.07968 h 2.54395 v 0.80078 h -2.54395 v -0.80078"
         style="fill:#8ae234;fill-opacity:1"
         id="path2968" />
      <path
         d="m 490.54618,333.73007 h 1.23047 v 1.48926 h -1.23047 v -1.48926"
         style="fill:#8ae234;fill-opacity:1"
         id="path2970" />
      <path
         d="m 496.56181,333.73007 h 1.23046 v 1.48926 h -1.23046 v -1.48926"
         style="fill:#8ae234;fill-opacity:1"
         id="path2972" />
      <path
         d="m 501.92802,332.07968 h 2.54394 v 0.80078 h -2.54394 v -0.80078"
         style="fill:#8ae234;fill-opacity:1"
         id="path2974" />
      <path
         d="m 507.94364,332.07968 h 2.54395 v 0.80078 h -2.54395 v -0.80078"
         style="fill:#8ae234;fill-opacity:1"
         id="path2976" />
      <path
         d="m 514.60868,333.73007 h 1.23047 v 1.48926 h -1.23047 v -1.48926"
         style="fill:#8ae234;fill-opacity:1"
         id="path2978" />
      <path
         d="m 524.25712,337.1871 v 0.39063 h -6.02051 v -0.39063 h 6.02051"
         style="fill:#8ae234;fill-opacity:1"
         id="path2980" />
      <path
         d="m 536.28837,337.1871 v 0.39063 h -6.02051 v -0.39063 h 6.02051"
         style="fill:#8ae234;fill-opacity:1"
         id="path2982" />
      <path
         d="m 536.18583,332.79745 v -0.83984 h 6.21582 v 0.83984 h -6.21582"
         id="path2984" />
      <path
         d="m 542.20145,332.79745 v -0.83984 h 6.21582 v 0.83984 h -6.21582"
         id="path2986" />
      <path
         d="m 548.21708,332.79745 v -0.83984 h 6.21582 v 0.83984 h -6.21582"
         id="path2988" />
      <path
         d="m 554.2327,332.79745 v -0.83984 h 6.21582 v 0.83984 h -6.21582"
         id="path2990" />
      <path
         d="m 560.24833,332.79745 v -0.83984 h 6.21582 v 0.83984 h -6.21582"
         id="path2992" />
      <path
         d="m 566.26395,332.79745 v -0.83984 h 6.21582 v 0.83984 h -6.21582"
         id="path2994" />
      <path
         d="m 574.99442,338.23691 v -5.43946 h -2.71484 v -0.83984 h 3.49609 v 6.2793 h -0.78125"
         id="path2996" />
      <path
         d="m 99.760048,350.73691 v -12.74414 h 0.781252 v 12.74414 h -0.781252"
         id="path2998" />
      <path
         d="m 145.27274,349.6871 v 0.39063 h -6.0205 v -0.39063 h 6.0205"
         id="path3000" />
      <path
         d="m 151.28837,349.6871 v 0.39063 h -6.02051 v -0.39063 h 6.02051"
         id="path3002" />
      <path
         d="m 175.35087,349.6871 v 0.39063 h -6.02051 v -0.39063 h 6.02051"
         id="path3004" />
      <path
         d="m 181.36649,349.6871 v 0.39063 h -6.0205 v -0.39063 h 6.0205"
         id="path3006" />
      <path
         d="m 187.38212,349.6871 v 0.39063 h -6.02051 v -0.39063 h 6.02051"
         id="path3008" />
      <path
         d="m 229.49149,349.6871 v 0.39063 h -6.0205 v -0.39063 h 6.0205"
         id="path3010" />
      <path
         d="m 235.50712,349.6871 v 0.39063 h -6.02051 v -0.39063 h 6.02051"
         id="path3012" />
      <path
         d="m 259.56962,349.6871 v 0.39063 h -6.02051 v -0.39063 h 6.02051"
         id="path3014" />
      <path
         d="m 265.58524,349.6871 v 0.39063 h -6.0205 v -0.39063 h 6.0205"
         id="path3016" />
      <path
         d="m 271.60087,349.6871 v 0.39063 h -6.02051 v -0.39063 h 6.02051"
         id="path3018" />
      <path
         d="m 295.66337,349.6871 v 0.39063 h -6.02051 v -0.39063 h 6.02051"
         id="path3020" />
      <path
         d="m 301.67899,349.6871 v 0.39063 h -6.0205 v -0.39063 h 6.0205"
         id="path3022" />
      <path
         d="m 307.69462,349.6871 v 0.39063 h -6.02051 v -0.39063 h 6.02051"
         id="path3024" />
      <path
         d="m 313.71024,349.6871 v 0.39063 h -6.0205 v -0.39063 h 6.0205"
         id="path3026" />
      <path
         d="m 337.77274,349.6871 v 0.39063 h -6.0205 v -0.39063 h 6.0205"
         id="path3028" />
      <path
         d="m 343.78837,349.6871 v 0.39063 h -6.02051 v -0.39063 h 6.02051"
         id="path3030" />
      <path
         d="m 355.81962,349.6871 v 0.39063 h -6.02051 v -0.39063 h 6.02051"
         id="path3032" />
      <path
         d="m 361.83524,349.6871 v 0.39063 h -6.0205 v -0.39063 h 6.0205"
         id="path3034" />
      <path
         d="m 379.88212,349.6871 v 0.39063 h -6.02051 v -0.39063 h 6.02051"
         id="path3036" />
      <path
         d="m 385.89774,349.6871 v 0.39063 h -6.0205 v -0.39063 h 6.0205"
         id="path3038" />
      <path
         d="m 391.91337,349.6871 v 0.39063 h -6.02051 v -0.39063 h 6.02051"
         id="path3040" />
      <path
         d="m 397.92899,349.6871 v 0.39063 h -6.0205 v -0.39063 h 6.0205"
         id="path3042" />
      <path
         d="m 403.94462,349.6871 v 0.39063 h -6.02051 v -0.39063 h 6.02051"
         id="path3044" />
      <path
         d="m 409.96024,349.6871 v 0.39063 h -6.0205 v -0.39063 h 6.0205"
         id="path3046" />
      <path
         d="m 430.38993,346.23007 h 1.23047 v 1.48926 h -1.23047 v -1.48926"
         style="fill:#8ae234;fill-opacity:1"
         id="path3048" />
      <path
         d="m 435.75614,344.57968 h 2.54395 v 0.80078 h -2.54395 v -0.80078"
         style="fill:#8ae234;fill-opacity:1"
         id="path3050" />
      <path
         d="m 443.46122,340.42929 v 2.70996 h -0.84961 v -2.70996 h 0.84961"
         style="fill:#8ae234;fill-opacity:1"
         id="path3052" />
      <path
         d="m 458.08524,349.6871 v 0.39063 h -6.0205 v -0.39063 h 6.0205"
         style="fill:#8ae234;fill-opacity:1"
         id="path3054" />
      <path
         d="m 462.42118,340.42929 h 0.92774 l -3.8379,8.21777 h -0.93261 l 3.84277,-8.21777"
         style="fill:#8ae234;fill-opacity:1"
         id="path3056" />
      <path
         d="m 488.16337,349.6871 v 0.39063 h -6.02051 v -0.39063 h 6.02051"
         style="fill:#8ae234;fill-opacity:1"
         id="path3058" />
      <path
         d="m 492.49931,340.42929 h 0.92773 l -3.83789,8.21777 h -0.93262 l 3.84278,-8.21777"
         style="fill:#8ae234;fill-opacity:1"
         id="path3060" />
      <path
         d="m 495.60477,340.42929 3.8379,8.21777 h -0.92774 l -3.84277,-8.21777 h 0.93261"
         style="fill:#8ae234;fill-opacity:1"
         id="path3062" />
      <path
         d="m 506.21024,349.6871 v 0.39063 h -6.0205 v -0.39063 h 6.0205"
         style="fill:#8ae234;fill-opacity:1"
         id="path3064" />
      <path
         d="m 525.6829,340.42929 3.83789,8.21777 h -0.92773 l -3.84278,-8.21777 h 0.93262"
         style="fill:#8ae234;fill-opacity:1"
         id="path3066" />
      <path
         d="m 536.28837,349.6871 v 0.39063 h -6.02051 v -0.39063 h 6.02051"
         style="fill:#8ae234;fill-opacity:1"
         id="path3068" />
      <path
         d="m 539.71122,340.42929 v 2.70996 h -0.84961 v -2.70996 h 0.84961"
         style="fill:#8ae234;fill-opacity:1"
         id="path3070" />
      <path
         d="m 544.03739,344.57968 h 2.54395 v 0.80078 h -2.54395 v -0.80078"
         style="fill:#8ae234;fill-opacity:1"
         id="path3072" />
      <path
         d="m 550.70243,346.23007 h 1.23047 v 1.48926 h -1.23047 v -1.48926"
         style="fill:#8ae234;fill-opacity:1"
         id="path3074" />
      <path
         d="m 574.99442,350.73691 v -12.74414 h 0.78125 v 12.74414 h -0.78125"
         id="path3076" />
      <path
         d="m 99.760048,363.23691 v -12.74414 h 0.781252 v 12.74414 h -0.781252"
         id="path3078" />
      <path
         d="m 137.57743,352.92929 h 0.92774 l -3.8379,8.21777 h -0.93261 l 3.84277,-8.21777"
         id="path3080" />
      <path
         d="m 155.04325,352.62167 v 8.91602 h -2.07031 v -0.69824 h 1.17187 v -7.51953 h -1.17187 v -0.69825 h 2.07031"
         id="path3082" />
      <path
         d="m 167.65556,352.92929 h 0.92773 l -3.83789,8.21777 h -0.93262 l 3.84278,-8.21777"
         id="path3084" />
      <path
         d="m 188.8079,352.92929 3.83789,8.21777 h -0.92773 l -3.84278,-8.21777 h 0.93262"
         id="path3086" />
      <path
         d="m 221.79618,352.92929 h 0.92774 l -3.8379,8.21777 h -0.93261 l 3.84277,-8.21777"
         id="path3088" />
      <path
         d="m 239.262,352.62167 v 8.91602 h -2.07031 v -0.69824 h 1.17187 v -7.51953 h -1.17187 v -0.69825 h 2.07031"
         id="path3090" />
      <path
         d="m 251.87431,352.92929 h 0.92773 l -3.83789,8.21777 h -0.93262 l 3.84278,-8.21777"
         id="path3092" />
      <path
         d="m 273.02665,352.92929 3.83789,8.21777 h -0.92773 l -3.84278,-8.21777 h 0.93262"
         id="path3094" />
      <path
         d="m 287.05497,352.57773 v 10 h -0.83984 v -10 h 0.83984"
         id="path3096" />
      <path
         d="m 315.13602,352.92929 3.8379,8.21777 h -0.92774 l -3.84277,-8.21777 h 0.93261"
         id="path3098" />
      <path
         d="m 329.16434,352.57773 v 10 h -0.83984 v -10 h 0.83984"
         id="path3100" />
      <path
         d="m 347.21122,352.57773 v 10 h -0.83984 v -10 h 0.83984"
         id="path3102" />
      <path
         d="m 365.25809,352.57773 v 10 h -0.83984 v -10 h 0.83984"
         id="path3104" />
      <path
         d="m 371.27372,352.57773 v 10 h -0.83984 v -10 h 0.83984"
         id="path3106" />
      <path
         d="m 413.38309,352.57773 v 10 h -0.83984 v -10 h 0.83984"
         id="path3108" />
      <path
         d="m 425.41434,352.57773 v 10 h -0.83984 v -10 h 0.83984"
         style="fill:#8ae234;fill-opacity:1"
         id="path3110" />
      <path
         d="m 434.02274,362.1871 v 0.39063 h -6.0205 v -0.39063 h 6.0205"
         style="fill:#8ae234;fill-opacity:1"
         id="path3112" />
      <path
         d="m 440.03837,362.1871 v 0.39063 h -6.02051 v -0.39063 h 6.02051"
         style="fill:#8ae234;fill-opacity:1"
         id="path3114" />
      <path
         d="m 450.38993,352.92929 h 0.92774 l -3.8379,8.21777 h -0.93261 l 3.84277,-8.21777"
         style="fill:#8ae234;fill-opacity:1"
         id="path3116" />
      <path
         d="m 476.13212,362.1871 v 0.39063 h -6.02051 v -0.39063 h 6.02051"
         style="fill:#8ae234;fill-opacity:1"
         id="path3118" />
      <path
         d="m 480.46806,352.92929 h 0.92773 l -3.83789,8.21777 h -0.93262 l 3.84278,-8.21777"
         style="fill:#8ae234;fill-opacity:1"
         id="path3120" />
      <path
         d="m 483.57352,352.92929 3.8379,8.21777 h -0.92774 l -3.84277,-8.21777 h 0.93261"
         style="fill:#c4a000;fill-opacity:1"
         id="path3122" />
      <path
         d="m 494.17899,362.1871 v 0.39063 h -6.0205 v -0.39063 h 6.0205"
         style="fill:#c4a000;fill-opacity:1"
         id="path3124" />
      <path
         d="m 500.19462,362.1871 v 0.39063 h -6.02051 v -0.39063 h 6.02051"
         style="fill:#c4a000;fill-opacity:1"
         id="path3126" />
      <path
         d="m 504.53056,352.92929 h 0.92773 l -3.83789,8.21777 h -0.93262 l 3.84278,-8.21777"
         style="fill:#c4a000;fill-opacity:1"
         id="path3128" />
      <path
         d="m 507.63602,352.92929 3.8379,8.21777 h -0.92774 l -3.84277,-8.21777 h 0.93261"
         style="fill:#8ae234;fill-opacity:1"
         id="path3130" />
      <path
         d="m 518.24149,362.1871 v 0.39063 h -6.0205 v -0.39063 h 6.0205"
         style="fill:#8ae234;fill-opacity:1"
         id="path3132" />
      <path
         d="m 537.71415,352.92929 3.83789,8.21777 h -0.92773 l -3.84278,-8.21777 h 0.93262"
         style="fill:#8ae234;fill-opacity:1"
         id="path3134" />
      <path
         d="m 548.31962,362.1871 v 0.39063 h -6.02051 v -0.39063 h 6.02051"
         style="fill:#8ae234;fill-opacity:1"
         id="path3136" />
      <path
         d="m 554.33524,362.1871 v 0.39063 h -6.0205 v -0.39063 h 6.0205"
         style="fill:#8ae234;fill-opacity:1"
         id="path3138" />
      <path
         d="m 557.75809,352.57773 v 10 h -0.83984 v -10 h 0.83984"
         style="fill:#8ae234;fill-opacity:1"
         id="path3140" />
      <path
         d="m 574.99442,363.23691 v -12.74414 h 0.78125 v 12.74414 h -0.78125"
         id="path3142" />
      <path
         d="m 99.760048,375.73691 v -12.74414 h 0.781252 v 12.74414 h -0.781252"
         id="path3144" />
      <path
         d="m 131.56181,365.42929 h 0.92773 l -3.83789,8.21777 h -0.93262 l 3.84278,-8.21777"
         id="path3146" />
      <path
         d="m 149.60868,365.42929 h 0.92774 l -3.8379,8.21777 h -0.93261 l 3.84277,-8.21777"
         id="path3148" />
      <path
         d="m 160.72684,365.07773 v 10 H 159.887 v -10 h 0.83984"
         id="path3150" />
      <path
         d="m 196.82059,365.07773 v 10 h -0.83984 v -10 h 0.83984"
         id="path3152" />
      <path
         d="m 215.78056,365.42929 h 0.92773 l -3.83789,8.21777 h -0.93262 l 3.84278,-8.21777"
         id="path3154" />
      <path
         d="m 233.82743,365.42929 h 0.92774 l -3.8379,8.21777 h -0.93261 l 3.84277,-8.21777"
         id="path3156" />
      <path
         d="m 244.94559,365.07773 v 10 h -0.83984 v -10 h 0.83984"
         id="path3158" />
      <path
         d="m 281.03934,365.07773 v 10 h -0.83984 v -10 h 0.83984"
         id="path3160" />
      <path
         d="m 287.05497,365.07773 v 10 h -0.83984 v -10 h 0.83984"
         id="path3162" />
      <path
         d="m 307.69462,374.6871 v 0.39063 h -6.02051 v -0.39063 h 6.02051"
         id="path3164" />
      <path
         d="m 323.14872,365.07773 v 10 h -0.83984 v -10 h 0.83984"
         id="path3166" />
      <path
         d="m 329.16434,365.07773 v 10 h -0.83984 v -10 h 0.83984"
         id="path3168" />
      <path
         d="m 347.21122,365.07773 v 10 h -0.83984 v -10 h 0.83984"
         id="path3170" />
      <path
         d="m 365.25809,365.07773 v 10 h -0.83984 v -10 h 0.83984"
         id="path3172" />
      <path
         d="m 371.27372,365.07773 v 10 h -0.83984 v -10 h 0.83984"
         id="path3174" />
      <path
         d="m 413.38309,365.07773 v 10 h -0.83984 v -10 h 0.83984"
         id="path3176" />
      <path
         d="m 443.46122,365.07773 v 10 h -0.83984 v -10 h 0.83984"
         style="fill:#8ae234;fill-opacity:1"
         id="path3178" />
      <path
         d="m 452.06962,374.6871 v 0.39063 h -6.02051 v -0.39063 h 6.02051"
         style="fill:#8ae234;fill-opacity:1"
         id="path3180" />
      <path
         d="m 458.08524,374.6871 v 0.39063 h -6.0205 v -0.39063 h 6.0205"
         style="fill:#8ae234;fill-opacity:1"
         id="path3182" />
      <path
         d="m 464.10087,374.6871 v 0.39063 h -6.02051 v -0.39063 h 6.02051"
         style="fill:#8ae234;fill-opacity:1"
         id="path3184" />
      <path
         d="m 468.43681,365.42929 h 0.92773 l -3.83789,8.21777 h -0.93262 l 3.84278,-8.21777"
         style="fill:#8ae234;fill-opacity:1"
         id="path3186" />
      <path
         d="m 471.54227,365.42929 3.8379,8.21777 h -0.92774 l -3.84277,-8.21777 h 0.93261"
         style="fill:#8ae234;fill-opacity:1"
         id="path3188" />
      <path
         d="m 482.14774,374.6871 v 0.39063 h -6.0205 v -0.39063 h 6.0205"
         style="fill:#8ae234;fill-opacity:1"
         id="path3190" />
      <path
         d="m 483.57352,365.42929 3.8379,8.21777 h -0.92774 l -3.84277,-8.21777 h 0.93261"
         style="fill:#c4a000;fill-opacity:1"
         id="path3192" />
      <path
         d="m 494.17899,374.6871 v 0.39063 h -6.0205 v -0.39063 h 6.0205"
         style="fill:#c4a000;fill-opacity:1"
         id="path3194" />
      <path
         d="m 500.19462,374.6871 v 0.39063 h -6.02051 v -0.39063 h 6.02051"
         style="fill:#c4a000;fill-opacity:1"
         id="path3196" />
      <path
         d="m 504.53056,365.42929 h 0.92773 l -3.83789,8.21777 h -0.93262 l 3.84278,-8.21777"
         style="fill:#c4a000;fill-opacity:1"
         id="path3198" />
      <path
         d="m 510.52665,365.13144 c -0.43295,0.74219 -0.75684,1.48275 -0.97168,2.22168 -0.21159,0.73568 -0.31739,1.47787 -0.31738,2.22656 -1e-5,0.74545 0.10579,1.48763 0.31738,2.22656 0.21484,0.73894 0.53873,1.48275 0.97168,2.23145 h -0.78125 c -0.49154,-0.77474 -0.85775,-1.52832 -1.09863,-2.26074 -0.24089,-0.73568 -0.36133,-1.4681 -0.36133,-2.19727 0,-0.72591 0.12044,-1.4567 0.36133,-2.19238 0.24088,-0.73567 0.60709,-1.48762 1.09863,-2.25586 h 0.78125"
         style="fill:#d3d7cf;fill-opacity:1"
         id="path3200" />
      <path
         d="m 513.7786,365.1412 h 0.99121 v 0.98633 h -0.99121 v -0.98633 m 1.91407,0 h 0.98632 v 0.98633 h -0.98632 v -0.98633"
         style="fill:#d3d7cf;fill-opacity:1"
         id="path3202" />
      <path
         d="m 519.93583,365.13144 h 0.78125 c 0.49153,0.76824 0.85774,1.52019 1.09863,2.25586 0.24088,0.73568 0.36133,1.46647 0.36133,2.19238 0,0.73243 -0.12045,1.46647 -0.36133,2.20215 -0.24089,0.73568 -0.6071,1.48763 -1.09863,2.25586 h -0.78125 c 0.43294,-0.75521 0.75521,-1.50228 0.9668,-2.24121 0.21484,-0.73893 0.32226,-1.47786 0.32226,-2.2168 0,-0.74218 -0.10742,-1.48274 -0.32226,-2.22168 -0.21159,-0.73892 -0.53386,-1.48111 -0.9668,-2.22656"
         style="fill:#d3d7cf;fill-opacity:1"
         id="path3204" />
      <path
         d="m 525.6829,365.42929 3.83789,8.21777 h -0.92773 l -3.84278,-8.21777 h 0.93262"
         style="fill:#8ae234;fill-opacity:1"
         id="path3206" />
      <path
         d="m 536.28837,374.6871 v 0.39063 h -6.02051 v -0.39063 h 6.02051"
         style="fill:#8ae234;fill-opacity:1"
         id="path3208" />
      <path
         d="m 542.30399,374.6871 v 0.39063 h -6.0205 v -0.39063 h 6.0205"
         style="fill:#8ae234;fill-opacity:1"
         id="path3210" />
      <path
         d="m 548.31962,374.6871 v 0.39063 h -6.02051 v -0.39063 h 6.02051"
         style="fill:#8ae234;fill-opacity:1"
         id="path3212" />
      <path
         d="m 551.74247,365.07773 v 10 h -0.83984 v -10 h 0.83984"
         style="fill:#8ae234;fill-opacity:1"
         id="path3214" />
      <path
         d="m 574.99442,375.73691 v -12.74414 h 0.78125 v 12.74414 h -0.78125"
         id="path3216" />
      <path
         d="m 99.760048,388.23691 v -12.74414 h 0.781252 v 12.74414 h -0.781252"
         id="path3218" />
      <path
         d="m 125.54618,377.92929 h 0.92774 l -3.8379,8.21777 h -0.93261 l 3.84277,-8.21777"
         id="path3220" />
      <path
         d="m 143.59306,377.92929 h 0.92773 l -3.83789,8.21777 h -0.93262 l 3.84278,-8.21777"
         id="path3222" />
      <path
         d="m 160.72684,377.57773 v 10 H 159.887 v -10 h 0.83984"
         id="path3224" />
      <path
         d="m 179.76493,381.58163 c 0,-1.07095 -0.11068,-1.83593 -0.33203,-2.29492 -0.2181,-0.45898 -0.5778,-0.68847 -1.0791,-0.68847 -0.49805,0 -0.85775,0.22949 -1.0791,0.68847 -0.2181,0.45899 -0.32715,1.22397 -0.32715,2.29492 0,1.06772 0.10905,1.83106 0.32715,2.29004 0.22135,0.45899 0.58105,0.68848 1.0791,0.68848 0.5013,0 0.861,-0.22786 1.0791,-0.68359 0.22135,-0.45899 0.33203,-1.22396 0.33203,-2.29493 m 1.03027,0 c 0,1.26954 -0.20182,2.2168 -0.60546,2.8418 -0.4004,0.625 -1.01238,0.9375 -1.83594,0.9375 -0.82357,0 -1.43555,-0.31087 -1.83594,-0.93262 -0.40039,-0.62174 -0.60059,-1.57063 -0.60059,-2.84668 0,-1.27278 0.2002,-2.22167 0.60059,-2.84668 0.40364,-0.62499 1.01562,-0.93749 1.83594,-0.9375 0.82356,10e-6 1.43554,0.31251 1.83594,0.9375 0.40364,0.62501 0.60546,1.5739 0.60546,2.84668"
         id="path3226" />
      <path
         d="m 196.82059,377.57773 v 10 h -0.83984 v -10 h 0.83984"
         id="path3228" />
      <path
         d="m 209.76493,377.92929 h 0.92774 l -3.8379,8.21777 h -0.93261 l 3.84277,-8.21777"
         id="path3230" />
      <path
         d="m 227.81181,377.92929 h 0.92773 l -3.83789,8.21777 h -0.93262 l 3.84278,-8.21777"
         id="path3232" />
      <path
         d="m 244.94559,377.57773 v 10 h -0.83984 v -10 h 0.83984"
         id="path3234" />
      <path
         d="m 263.98368,381.58163 c 0,-1.07095 -0.11068,-1.83593 -0.33203,-2.29492 -0.2181,-0.45898 -0.5778,-0.68847 -1.0791,-0.68847 -0.49805,0 -0.85775,0.22949 -1.0791,0.68847 -0.2181,0.45899 -0.32715,1.22397 -0.32715,2.29492 0,1.06772 0.10905,1.83106 0.32715,2.29004 0.22135,0.45899 0.58105,0.68848 1.0791,0.68848 0.5013,0 0.861,-0.22786 1.0791,-0.68359 0.22135,-0.45899 0.33203,-1.22396 0.33203,-2.29493 m 1.03027,0 c 0,1.26954 -0.20182,2.2168 -0.60546,2.8418 -0.4004,0.625 -1.01238,0.9375 -1.83594,0.9375 -0.82357,0 -1.43555,-0.31087 -1.83594,-0.93262 -0.40039,-0.62174 -0.60059,-1.57063 -0.60059,-2.84668 0,-1.27278 0.2002,-2.22167 0.60059,-2.84668 0.40364,-0.62499 1.01562,-0.93749 1.83594,-0.9375 0.82356,10e-6 1.43554,0.31251 1.83594,0.9375 0.40364,0.62501 0.60546,1.5739 0.60546,2.84668"
         id="path3236" />
      <path
         d="m 281.03934,377.57773 v 10 h -0.83984 v -10 h 0.83984"
         id="path3238" />
      <path
         d="m 287.05497,377.57773 v 10 h -0.83984 v -10 h 0.83984"
         id="path3240" />
      <path
         d="m 305.10184,377.57773 v 10 H 304.262 v -10 h 0.83984"
         id="path3242" />
      <path
         d="m 323.14872,377.57773 v 10 h -0.83984 v -10 h 0.83984"
         id="path3244" />
      <path
         d="m 329.16434,377.57773 v 10 h -0.83984 v -10 h 0.83984"
         id="path3246" />
      <path
         d="m 347.21122,377.57773 v 10 h -0.83984 v -10 h 0.83984"
         id="path3248" />
      <path
         d="m 365.25809,377.57773 v 10 h -0.83984 v -10 h 0.83984"
         id="path3250" />
      <path
         d="m 371.27372,377.57773 v 10 h -0.83984 v -10 h 0.83984"
         id="path3252" />
      <path
         d="m 379.88212,387.1871 v 0.39063 h -6.02051 v -0.39063 h 6.02051"
         id="path3254" />
      <path
         d="m 383.30497,377.57773 v 10 h -0.83984 v -10 h 0.83984"
         id="path3256" />
      <path
         d="m 401.35184,377.57773 v 10 H 400.512 v -10 h 0.83984"
         id="path3258" />
      <path
         d="m 409.96024,387.1871 v 0.39063 h -6.0205 v -0.39063 h 6.0205"
         id="path3260" />
      <path
         d="m 413.38309,377.57773 v 10 h -0.83984 v -10 h 0.83984"
         id="path3262" />
      <path
         d="m 483.57352,377.92929 3.8379,8.21777 h -0.92774 l -3.84277,-8.21777 h 0.93261"
         style="fill:#c4a000;fill-opacity:1"
         id="path3264" />
      <path
         d="m 494.17899,387.1871 v 0.39063 h -6.0205 v -0.39063 h 6.0205"
         style="fill:#c4a000;fill-opacity:1"
         id="path3266" />
      <path
         d="m 500.19462,387.1871 v 0.39063 h -6.02051 v -0.39063 h 6.02051"
         style="fill:#c4a000;fill-opacity:1"
         id="path3268" />
      <path
         d="m 504.53056,377.92929 h 0.92773 l -3.83789,8.21777 h -0.93262 l 3.84278,-8.21777"
         style="fill:#c4a000;fill-opacity:1"
         id="path3270" />
      <path
         d="m 574.99442,388.23691 v -12.74414 h 0.78125 v 12.74414 h -0.78125"
         id="path3272" />
      <path
         d="m 99.760048,400.73691 v -12.74414 h 0.781252 v 12.74414 h -0.781252"
         id="path3274" />
      <path
         d="m 119.53056,390.42929 h 0.92773 l -3.83789,8.21777 h -0.93262 l 3.84278,-8.21777"
         id="path3276" />
      <path
         d="m 140.6829,390.42929 3.83789,8.21777 h -0.92773 l -3.84278,-8.21777 h 0.93262"
         id="path3278" />
      <path
         d="m 151.28837,399.6871 v 0.39063 h -6.02051 v -0.39063 h 6.02051"
         id="path3280" />
      <path
         d="m 160.72684,390.07773 v 10 H 159.887 v -10 h 0.83984"
         id="path3282" />
      <path
         d="m 196.82059,390.07773 v 10 h -0.83984 v -10 h 0.83984"
         id="path3284" />
      <path
         d="m 203.74931,390.42929 h 0.92773 l -3.83789,8.21777 h -0.93262 l 3.84278,-8.21777"
         id="path3286" />
      <path
         d="m 224.90165,390.42929 3.83789,8.21777 h -0.92773 l -3.84278,-8.21777 h 0.93262"
         id="path3288" />
      <path
         d="m 235.50712,399.6871 v 0.39063 h -6.02051 v -0.39063 h 6.02051"
         id="path3290" />
      <path
         d="m 244.94559,390.07773 v 10 h -0.83984 v -10 h 0.83984"
         id="path3292" />
      <path
         d="m 281.03934,390.07773 v 10 h -0.83984 v -10 h 0.83984"
         id="path3294" />
      <path
         d="m 287.05497,390.07773 v 10 h -0.83984 v -10 h 0.83984"
         id="path3296" />
      <path
         d="m 305.10184,390.07773 v 10 H 304.262 v -10 h 0.83984"
         id="path3298" />
      <path
         d="m 323.14872,390.07773 v 10 h -0.83984 v -10 h 0.83984"
         id="path3300" />
      <path
         d="m 329.16434,390.07773 v 10 h -0.83984 v -10 h 0.83984"
         id="path3302" />
      <path
         d="m 346.17118,392.5289 h 1.23047 v 1.47949 h -1.23047 v -1.47949 m 0,3.70117 h 1.23047 v 1.48926 h -1.23047 v -1.48926"
         id="path3304" />
      <path
         d="m 365.25809,390.07773 v 10 h -0.83984 v -10 h 0.83984"
         id="path3306" />
      <path
         d="m 383.30497,390.07773 v 10 h -0.83984 v -10 h 0.83984"
         id="path3308" />
      <path
         d="m 401.35184,390.07773 v 10 H 400.512 v -10 h 0.83984"
         id="path3310" />
      <path
         d="m 462.40165,390.13144 c -0.43295,0.74219 -0.75684,1.48275 -0.97168,2.22168 -0.21159,0.73568 -0.31739,1.47787 -0.31738,2.22656 -1e-5,0.74545 0.10579,1.48763 0.31738,2.22656 0.21484,0.73894 0.53873,1.48275 0.97168,2.23145 h -0.78125 c -0.49154,-0.77474 -0.85775,-1.52832 -1.09863,-2.26074 -0.24089,-0.73568 -0.36133,-1.4681 -0.36133,-2.19727 0,-0.72591 0.12044,-1.4567 0.36133,-2.19238 0.24088,-0.73567 0.60709,-1.48762 1.09863,-2.25586 h 0.78125"
         style="fill:#d3d7cf;fill-opacity:1"
         id="path3312" />
      <path
         d="m 465.6536,390.1412 h 0.99121 v 0.98633 h -0.99121 v -0.98633 m 1.91407,0 h 0.98632 v 0.98633 h -0.98632 v -0.98633"
         style="fill:#d3d7cf;fill-opacity:1"
         id="path3314" />
      <path
         d="m 471.81083,390.13144 h 0.78125 c 0.49153,0.76824 0.85774,1.52019 1.09863,2.25586 0.24088,0.73568 0.36133,1.46647 0.36133,2.19238 0,0.73243 -0.12045,1.46647 -0.36133,2.20215 -0.24089,0.73568 -0.6071,1.48763 -1.09863,2.25586 h -0.78125 c 0.43294,-0.75521 0.75521,-1.50228 0.9668,-2.24121 0.21484,-0.73893 0.32226,-1.47786 0.32226,-2.2168 0,-0.74218 -0.10742,-1.48274 -0.32226,-2.22168 -0.21159,-0.73892 -0.53386,-1.48111 -0.9668,-2.22656"
         style="fill:#d3d7cf;fill-opacity:1"
         id="path3316" />
      <path
         d="m 483.57352,390.42929 3.8379,8.21777 h -0.92774 l -3.84277,-8.21777 h 0.93261"
         style="fill:#c4a000;fill-opacity:1"
         id="path3318" />
      <path
         d="m 494.17899,399.6871 v 0.39063 h -6.0205 v -0.39063 h 6.0205"
         style="fill:#c4a000;fill-opacity:1"
         id="path3320" />
      <path
         d="m 500.19462,399.6871 v 0.39063 h -6.02051 v -0.39063 h 6.02051"
         style="fill:#c4a000;fill-opacity:1"
         id="path3322" />
      <path
         d="m 504.53056,390.42929 h 0.92773 l -3.83789,8.21777 h -0.93262 l 3.84278,-8.21777"
         style="fill:#c4a000;fill-opacity:1"
         id="path3324" />
      <path
         d="m 574.99442,400.73691 v -12.74414 h 0.78125 v 12.74414 h -0.78125"
         id="path3326" />
      <path
         d="m 99.760048,413.23691 v -12.74414 h 0.781252 v 12.74414 h -0.781252"
         id="path3328" />
      <path
         d="m 116.6204,402.92929 3.83789,8.21777 h -0.92773 l -3.84278,-8.21777 h 0.93262"
         id="path3330" />
      <path
         d="m 154.71122,402.57773 v 10 h -0.83984 v -10 h 0.83984"
         id="path3332" />
      <path
         d="m 160.72684,402.57773 v 10 H 159.887 v -10 h 0.83984"
         id="path3334" />
      <path
         d="m 196.82059,402.57773 v 10 h -0.83984 v -10 h 0.83984"
         id="path3336" />
      <path
         d="m 200.83915,402.92929 3.83789,8.21777 h -0.92773 l -3.84278,-8.21777 h 0.93262"
         id="path3338" />
      <path
         d="m 238.92997,402.57773 v 10 h -0.83984 v -10 h 0.83984"
         id="path3340" />
      <path
         d="m 244.94559,402.57773 v 10 h -0.83984 v -10 h 0.83984"
         id="path3342" />
      <path
         d="m 281.03934,402.57773 v 10 h -0.83984 v -10 h 0.83984"
         id="path3344" />
      <path
         d="m 287.05497,402.57773 v 10 h -0.83984 v -10 h 0.83984"
         id="path3346" />
      <path
         d="m 305.10184,402.57773 v 10 H 304.262 v -10 h 0.83984"
         id="path3348" />
      <path
         d="m 323.14872,402.57773 v 10 h -0.83984 v -10 h 0.83984"
         id="path3350" />
      <path
         d="m 329.16434,402.57773 v 10 h -0.83984 v -10 h 0.83984"
         id="path3352" />
      <path
         d="m 365.25809,402.57773 v 10 h -0.83984 v -10 h 0.83984"
         id="path3354" />
      <path
         d="m 383.30497,402.57773 v 10 h -0.83984 v -10 h 0.83984"
         id="path3356" />
      <path
         d="m 401.35184,402.57773 v 10 H 400.512 v -10 h 0.83984"
         id="path3358" />
      <path
         d="m 489.58915,402.92929 3.83789,8.21777 h -0.92773 l -3.84278,-8.21777 h 0.93262"
         style="fill:#c4a000;fill-opacity:1"
         id="path3360" />
      <path
         d="m 500.19462,412.1871 v 0.39063 h -6.02051 v -0.39063 h 6.02051"
         style="fill:#c4a000;fill-opacity:1"
         id="path3362" />
      <path
         d="m 506.21024,412.1871 v 0.39063 h -6.0205 v -0.39063 h 6.0205"
         style="fill:#c4a000;fill-opacity:1"
         id="path3364" />
      <path
         d="m 510.54618,402.92929 h 0.92774 l -3.8379,8.21777 h -0.93261 l 3.84277,-8.21777"
         style="fill:#c4a000;fill-opacity:1"
         id="path3366" />
      <path
         d="m 574.99442,413.23691 v -12.74414 h 0.78125 v 12.74414 h -0.78125"
         id="path3368" />
      <path
         d="m 99.760048,425.73691 v -12.74414 h 0.781252 v 12.74414 h -0.781252"
         id="path3370" />
      <path
         d="m 122.63602,415.42929 3.8379,8.21777 h -0.92774 l -3.84277,-8.21777 h 0.93261"
         id="path3372" />
      <path
         d="m 133.24149,424.6871 v 0.39063 h -6.0205 v -0.39063 h 6.0205"
         id="path3374" />
      <path
         d="m 139.25712,424.6871 v 0.39063 h -6.02051 v -0.39063 h 6.02051"
         id="path3376" />
      <path
         d="m 145.27274,424.6871 v 0.39063 h -6.0205 v -0.39063 h 6.0205"
         id="path3378" />
      <path
         d="m 151.28837,424.6871 v 0.39063 h -6.02051 v -0.39063 h 6.02051"
         id="path3380" />
      <path
         d="m 154.71122,415.07773 v 10 h -0.83984 v -10 h 0.83984"
         id="path3382" />
      <path
         d="m 164.7454,415.42929 3.83789,8.21777 h -0.92773 l -3.84278,-8.21777 h 0.93262"
         id="path3384" />
      <path
         d="m 175.35087,424.6871 v 0.39063 h -6.02051 v -0.39063 h 6.02051"
         id="path3386" />
      <path
         d="m 181.36649,424.6871 v 0.39063 h -6.0205 v -0.39063 h 6.0205"
         id="path3388" />
      <path
         d="m 187.38212,424.6871 v 0.39063 h -6.02051 v -0.39063 h 6.02051"
         id="path3390" />
      <path
         d="m 191.71806,415.42929 h 0.92773 l -3.83789,8.21777 h -0.93262 l 3.84278,-8.21777"
         id="path3392" />
      <path
         d="m 206.85477,415.42929 3.8379,8.21777 h -0.92774 l -3.84277,-8.21777 h 0.93261"
         id="path3394" />
      <path
         d="m 217.46024,424.6871 v 0.39063 h -6.0205 v -0.39063 h 6.0205"
         id="path3396" />
      <path
         d="m 223.47587,424.6871 v 0.39063 h -6.02051 v -0.39063 h 6.02051"
         id="path3398" />
      <path
         d="m 229.49149,424.6871 v 0.39063 h -6.0205 v -0.39063 h 6.0205"
         id="path3400" />
      <path
         d="m 235.50712,424.6871 v 0.39063 h -6.02051 v -0.39063 h 6.02051"
         id="path3402" />
      <path
         d="m 238.92997,415.07773 v 10 h -0.83984 v -10 h 0.83984"
         id="path3404" />
      <path
         d="m 248.96415,415.42929 3.83789,8.21777 h -0.92773 l -3.84278,-8.21777 h 0.93262"
         id="path3406" />
      <path
         d="m 259.56962,424.6871 v 0.39063 h -6.02051 v -0.39063 h 6.02051"
         id="path3408" />
      <path
         d="m 265.58524,424.6871 v 0.39063 h -6.0205 v -0.39063 h 6.0205"
         id="path3410" />
      <path
         d="m 271.60087,424.6871 v 0.39063 h -6.02051 v -0.39063 h 6.02051"
         id="path3412" />
      <path
         d="m 275.93681,415.42929 h 0.92773 l -3.83789,8.21777 h -0.93262 l 3.84278,-8.21777"
         id="path3414" />
      <path
         d="m 287.05497,415.07773 v 10 h -0.83984 v -10 h 0.83984"
         id="path3416" />
      <path
         d="m 295.66337,424.6871 v 0.39063 h -6.02051 v -0.39063 h 6.02051"
         id="path3418" />
      <path
         d="m 301.67899,424.6871 v 0.39063 h -6.0205 v -0.39063 h 6.0205"
         id="path3420" />
      <path
         d="m 305.10184,415.07773 v 10 H 304.262 v -10 h 0.83984"
         id="path3422" />
      <path
         d="m 313.71024,424.6871 v 0.39063 h -6.0205 v -0.39063 h 6.0205"
         id="path3424" />
      <path
         d="m 319.72587,424.6871 v 0.39063 h -6.02051 v -0.39063 h 6.02051"
         id="path3426" />
      <path
         d="m 323.14872,415.07773 v 10 h -0.83984 v -10 h 0.83984"
         id="path3428" />
      <path
         d="m 333.1829,415.42929 3.83789,8.21777 h -0.92773 l -3.84278,-8.21777 h 0.93262"
         id="path3430" />
      <path
         d="m 343.78837,424.6871 v 0.39063 h -6.02051 v -0.39063 h 6.02051"
         id="path3432" />
      <path
         d="m 349.80399,424.6871 v 0.39063 h -6.0205 v -0.39063 h 6.0205"
         id="path3434" />
      <path
         d="m 352.25028,421.23984 h 1.23047 v 1.01074 l -0.96191,1.87012 h -0.75196 l 0.4834,-1.87012 v -1.01074"
         id="path3436" />
      <path
         d="m 361.83524,424.6871 v 0.39063 h -6.0205 v -0.39063 h 6.0205"
         id="path3438" />
      <path
         d="m 365.25809,415.07773 v 10 h -0.83984 v -10 h 0.83984"
         id="path3440" />
      <path
         d="m 383.30497,415.07773 v 10 h -0.83984 v -10 h 0.83984"
         id="path3442" />
      <path
         d="m 391.91337,424.6871 v 0.39063 h -6.02051 v -0.39063 h 6.02051"
         id="path3444" />
      <path
         d="m 397.92899,424.6871 v 0.39063 h -6.0205 v -0.39063 h 6.0205"
         id="path3446" />
      <path
         d="m 401.35184,415.07773 v 10 H 400.512 v -10 h 0.83984"
         id="path3448" />
      <path
         d="m 495.60477,415.42929 3.8379,8.21777 h -0.92774 l -3.84277,-8.21777 h 0.93261"
         style="fill:#c4a000;fill-opacity:1"
         id="path3450" />
      <path
         d="m 506.21024,424.6871 v 0.39063 h -6.0205 v -0.39063 h 6.0205"
         style="fill:#c4a000;fill-opacity:1"
         id="path3452" />
      <path
         d="m 512.22587,424.6871 v 0.39063 h -6.02051 v -0.39063 h 6.02051"
         style="fill:#c4a000;fill-opacity:1"
         id="path3454" />
      <path
         d="m 516.56181,415.42929 h 0.92773 l -3.83789,8.21777 h -0.93262 l 3.84278,-8.21777"
         style="fill:#c4a000;fill-opacity:1"
         id="path3456" />
      <path
         d="m 574.99442,425.73691 v -12.74414 h 0.78125 v 12.74414 h -0.78125"
         id="path3458" />
      <path
         d="m 99.760048,438.23691 v -12.74414 h 0.781252 v 12.74414 h -0.781252"
         id="path3460" />
      <path
         d="m 115.19462,437.1871 v 0.39063 h -6.02051 v -0.39063 h 6.02051"
         id="path3462" />
      <path
         d="m 121.21024,437.1871 v 0.39063 h -6.0205 v -0.39063 h 6.0205"
         id="path3464" />
      <path
         d="m 127.22587,437.1871 v 0.39063 h -6.02051 v -0.39063 h 6.02051"
         id="path3466" />
      <path
         d="m 133.24149,437.1871 v 0.39063 h -6.0205 v -0.39063 h 6.0205"
         id="path3468" />
      <path
         d="m 139.25712,437.1871 v 0.39063 h -6.02051 v -0.39063 h 6.02051"
         id="path3470" />
      <path
         d="m 145.27274,437.1871 v 0.39063 h -6.0205 v -0.39063 h 6.0205"
         id="path3472" />
      <path
         d="m 151.28837,437.1871 v 0.39063 h -6.02051 v -0.39063 h 6.02051"
         id="path3474" />
      <path
         d="m 157.30399,437.1871 v 0.39063 h -6.0205 v -0.39063 h 6.0205"
         id="path3476" />
      <path
         d="m 163.31962,437.1871 v 0.39063 h -6.02051 v -0.39063 h 6.02051"
         id="path3478" />
      <path
         d="m 169.33524,437.1871 v 0.39063 h -6.0205 v -0.39063 h 6.0205"
         id="path3480" />
      <path
         d="m 175.35087,437.1871 v 0.39063 h -6.02051 v -0.39063 h 6.02051"
         id="path3482" />
      <path
         d="m 181.36649,437.1871 v 0.39063 h -6.0205 v -0.39063 h 6.0205"
         id="path3484" />
      <path
         d="m 187.38212,437.1871 v 0.39063 h -6.02051 v -0.39063 h 6.02051"
         id="path3486" />
      <path
         d="m 193.39774,437.1871 v 0.39063 h -6.0205 v -0.39063 h 6.0205"
         id="path3488" />
      <path
         d="m 199.41337,437.1871 v 0.39063 h -6.02051 v -0.39063 h 6.02051"
         id="path3490" />
      <path
         d="m 205.42899,437.1871 v 0.39063 h -6.0205 v -0.39063 h 6.0205"
         id="path3492" />
      <path
         d="m 211.44462,437.1871 v 0.39063 h -6.02051 v -0.39063 h 6.02051"
         id="path3494" />
      <path
         d="m 217.46024,437.1871 v 0.39063 h -6.0205 v -0.39063 h 6.0205"
         id="path3496" />
      <path
         d="m 223.47587,437.1871 v 0.39063 h -6.02051 v -0.39063 h 6.02051"
         id="path3498" />
      <path
         d="m 229.49149,437.1871 v 0.39063 h -6.0205 v -0.39063 h 6.0205"
         id="path3500" />
      <path
         d="m 235.50712,437.1871 v 0.39063 h -6.02051 v -0.39063 h 6.02051"
         id="path3502" />
      <path
         d="m 241.52274,437.1871 v 0.39063 h -6.0205 v -0.39063 h 6.0205"
         id="path3504" />
      <path
         d="m 247.53837,437.1871 v 0.39063 h -6.02051 v -0.39063 h 6.02051"
         id="path3506" />
      <path
         d="m 253.55399,437.1871 v 0.39063 h -6.0205 v -0.39063 h 6.0205"
         id="path3508" />
      <path
         d="m 259.56962,437.1871 v 0.39063 h -6.02051 v -0.39063 h 6.02051"
         id="path3510" />
      <path
         d="m 265.58524,437.1871 v 0.39063 h -6.0205 v -0.39063 h 6.0205"
         id="path3512" />
      <path
         d="m 271.60087,437.1871 v 0.39063 h -6.02051 v -0.39063 h 6.02051"
         id="path3514" />
      <path
         d="m 277.61649,437.1871 v 0.39063 h -6.0205 v -0.39063 h 6.0205"
         id="path3516" />
      <path
         d="m 283.63212,437.1871 v 0.39063 h -6.02051 v -0.39063 h 6.02051"
         id="path3518" />
      <path
         d="m 289.64774,437.1871 v 0.39063 h -6.0205 v -0.39063 h 6.0205"
         id="path3520" />
      <path
         d="m 295.66337,437.1871 v 0.39063 h -6.02051 v -0.39063 h 6.02051"
         id="path3522" />
      <path
         d="m 301.67899,437.1871 v 0.39063 h -6.0205 v -0.39063 h 6.0205"
         id="path3524" />
      <path
         d="m 307.69462,437.1871 v 0.39063 h -6.02051 v -0.39063 h 6.02051"
         id="path3526" />
      <path
         d="m 313.71024,437.1871 v 0.39063 h -6.0205 v -0.39063 h 6.0205"
         id="path3528" />
      <path
         d="m 319.72587,437.1871 v 0.39063 h -6.02051 v -0.39063 h 6.02051"
         id="path3530" />
      <path
         d="m 325.74149,437.1871 v 0.39063 h -6.0205 v -0.39063 h 6.0205"
         id="path3532" />
      <path
         d="m 331.75712,437.1871 v 0.39063 h -6.02051 v -0.39063 h 6.02051"
         id="path3534" />
      <path
         d="m 337.77274,437.1871 v 0.39063 h -6.0205 v -0.39063 h 6.0205"
         id="path3536" />
      <path
         d="m 343.78837,437.1871 v 0.39063 h -6.02051 v -0.39063 h 6.02051"
         id="path3538" />
      <path
         d="m 349.80399,437.1871 v 0.39063 h -6.0205 v -0.39063 h 6.0205"
         id="path3540" />
      <path
         d="m 355.81962,437.1871 v 0.39063 h -6.02051 v -0.39063 h 6.02051"
         id="path3542" />
      <path
         d="m 361.83524,437.1871 v 0.39063 h -6.0205 v -0.39063 h 6.0205"
         id="path3544" />
      <path
         d="m 367.85087,437.1871 v 0.39063 h -6.02051 v -0.39063 h 6.02051"
         id="path3546" />
      <path
         d="m 373.86649,437.1871 v 0.39063 h -6.0205 v -0.39063 h 6.0205"
         id="path3548" />
      <path
         d="m 379.88212,437.1871 v 0.39063 h -6.02051 v -0.39063 h 6.02051"
         id="path3550" />
      <path
         d="m 385.89774,437.1871 v 0.39063 h -6.0205 v -0.39063 h 6.0205"
         id="path3552" />
      <path
         d="m 391.91337,437.1871 v 0.39063 h -6.02051 v -0.39063 h 6.02051"
         id="path3554" />
      <path
         d="m 397.92899,437.1871 v 0.39063 h -6.0205 v -0.39063 h 6.0205"
         id="path3556" />
      <path
         d="m 403.94462,437.1871 v 0.39063 h -6.02051 v -0.39063 h 6.02051"
         id="path3558" />
      <path
         d="m 409.96024,437.1871 v 0.39063 h -6.0205 v -0.39063 h 6.0205"
         id="path3560" />
      <path
         d="m 415.97587,437.1871 v 0.39063 h -6.02051 v -0.39063 h 6.02051"
         id="path3562" />
      <path
         d="m 421.99149,437.1871 v 0.39063 h -6.0205 v -0.39063 h 6.0205"
         id="path3564" />
      <path
         d="m 428.00712,437.1871 v 0.39063 h -6.02051 v -0.39063 h 6.02051"
         id="path3566" />
      <path
         d="m 434.02274,437.1871 v 0.39063 h -6.0205 v -0.39063 h 6.0205"
         id="path3568" />
      <path
         d="m 440.03837,437.1871 v 0.39063 h -6.02051 v -0.39063 h 6.02051"
         id="path3570" />
      <path
         d="m 446.05399,437.1871 v 0.39063 h -6.0205 v -0.39063 h 6.0205"
         id="path3572" />
      <path
         d="m 452.06962,437.1871 v 0.39063 h -6.02051 v -0.39063 h 6.02051"
         id="path3574" />
      <path
         d="m 458.08524,437.1871 v 0.39063 h -6.0205 v -0.39063 h 6.0205"
         id="path3576" />
      <path
         d="m 464.10087,437.1871 v 0.39063 h -6.02051 v -0.39063 h 6.02051"
         id="path3578" />
      <path
         d="m 470.11649,437.1871 v 0.39063 h -6.0205 v -0.39063 h 6.0205"
         id="path3580" />
      <path
         d="m 476.13212,437.1871 v 0.39063 h -6.02051 v -0.39063 h 6.02051"
         id="path3582" />
      <path
         d="m 482.14774,437.1871 v 0.39063 h -6.0205 v -0.39063 h 6.0205"
         id="path3584" />
      <path
         d="m 488.16337,437.1871 v 0.39063 h -6.02051 v -0.39063 h 6.02051"
         id="path3586" />
      <path
         d="m 494.17899,437.1871 v 0.39063 h -6.0205 v -0.39063 h 6.0205"
         id="path3588" />
      <path
         d="m 500.19462,437.1871 v 0.39063 h -6.02051 v -0.39063 h 6.02051"
         id="path3590" />
      <path
         d="m 501.6204,427.92929 3.83789,8.21777 h -0.92773 l -3.84278,-8.21777 h 0.93262"
         style="fill:#c4a000;fill-opacity:1"
         id="path3592" />
      <path
         d="m 512.22587,437.1871 v 0.39063 h -6.02051 v -0.39063 h 6.02051"
         style="fill:#c4a000;fill-opacity:1"
         id="path3594" />
      <path
         d="m 518.24149,437.1871 v 0.39063 h -6.0205 v -0.39063 h 6.0205"
         style="fill:#c4a000;fill-opacity:1"
         id="path3596" />
      <path
         d="m 522.57743,427.92929 h 0.92774 l -3.8379,8.21777 h -0.93261 l 3.84277,-8.21777"
         style="fill:#c4a000;fill-opacity:1"
         id="path3598" />
      <path
         d="m 530.27274,437.1871 v 0.39063 h -6.0205 v -0.39063 h 6.0205"
         id="path3600" />
      <path
         d="m 536.28837,437.1871 v 0.39063 h -6.02051 v -0.39063 h 6.02051"
         id="path3602" />
      <path
         d="m 542.30399,437.1871 v 0.39063 h -6.0205 v -0.39063 h 6.0205"
         id="path3604" />
      <path
         d="m 548.31962,437.1871 v 0.39063 h -6.02051 v -0.39063 h 6.02051"
         id="path3606" />
      <path
         d="m 554.33524,437.1871 v 0.39063 h -6.0205 v -0.39063 h 6.0205"
         id="path3608" />
      <path
         d="m 560.35087,437.1871 v 0.39063 h -6.02051 v -0.39063 h 6.02051"
         id="path3610" />
      <path
         d="m 566.36649,437.1871 v 0.39063 h -6.0205 v -0.39063 h 6.0205"
         id="path3612" />
      <path
         d="m 574.99442,438.23691 v -12.74414 h 0.78125 v 12.74414 h -0.78125"
         id="path3614" />
      <path
         d="m 99.760048,445.29745 v -7.30468 h 0.781252 v 6.46484 h 2.71972 v 0.83984 h -3.500972"
         id="path3616" />
      <path
         d="m 103.06083,445.29745 v -0.83984 h 6.21582 v 0.83984 h -6.21582"
         id="path3618" />
      <path
         d="m 109.07645,445.29745 v -0.83984 h 6.21582 v 0.83984 h -6.21582"
         id="path3620" />
      <path
         d="m 115.09208,445.29745 v -0.83984 h 6.21582 v 0.83984 h -6.21582"
         id="path3622" />
      <path
         d="m 121.1077,445.29745 v -0.83984 h 6.21582 v 0.83984 h -6.21582"
         id="path3624" />
      <path
         d="m 127.12333,445.29745 v -0.83984 h 6.21582 v 0.83984 h -6.21582"
         id="path3626" />
      <path
         d="m 133.13895,445.29745 v -0.83984 h 6.21582 v 0.83984 h -6.21582"
         id="path3628" />
      <path
         d="m 139.15458,445.29745 v -0.83984 h 6.21582 v 0.83984 h -6.21582"
         id="path3630" />
      <path
         d="m 145.1702,445.29745 v -0.83984 h 6.21582 v 0.83984 h -6.21582"
         id="path3632" />
      <path
         d="m 151.18583,445.29745 v -0.83984 h 6.21582 v 0.83984 h -6.21582"
         id="path3634" />
      <path
         d="m 157.20145,445.29745 v -0.83984 h 6.21582 v 0.83984 h -6.21582"
         id="path3636" />
      <path
         d="m 163.21708,445.29745 v -0.83984 h 6.21582 v 0.83984 h -6.21582"
         id="path3638" />
      <path
         d="m 169.2327,445.29745 v -0.83984 h 6.21582 v 0.83984 h -6.21582"
         id="path3640" />
      <path
         d="m 175.24833,445.29745 v -0.83984 h 6.21582 v 0.83984 h -6.21582"
         id="path3642" />
      <path
         d="m 181.26395,445.29745 v -0.83984 h 6.21582 v 0.83984 h -6.21582"
         id="path3644" />
      <path
         d="m 187.27958,445.29745 v -0.83984 h 6.21582 v 0.83984 h -6.21582"
         id="path3646" />
      <path
         d="m 193.2952,445.29745 v -0.83984 h 6.21582 v 0.83984 h -6.21582"
         id="path3648" />
      <path
         d="m 199.31083,445.29745 v -0.83984 h 6.21582 v 0.83984 h -6.21582"
         id="path3650" />
      <path
         d="m 205.32645,445.29745 v -0.83984 h 6.21582 v 0.83984 h -6.21582"
         id="path3652" />
      <path
         d="m 211.34208,445.29745 v -0.83984 h 6.21582 v 0.83984 h -6.21582"
         id="path3654" />
      <path
         d="m 217.3577,445.29745 v -0.83984 h 6.21582 v 0.83984 h -6.21582"
         id="path3656" />
      <path
         d="m 223.37333,445.29745 v -0.83984 h 6.21582 v 0.83984 h -6.21582"
         id="path3658" />
      <path
         d="m 229.38895,445.29745 v -0.83984 h 6.21582 v 0.83984 h -6.21582"
         id="path3660" />
      <path
         d="m 235.40458,445.29745 v -0.83984 h 6.21582 v 0.83984 h -6.21582"
         id="path3662" />
      <path
         d="m 241.4202,445.29745 v -0.83984 h 6.21582 v 0.83984 h -6.21582"
         id="path3664" />
      <path
         d="m 247.43583,445.29745 v -0.83984 h 6.21582 v 0.83984 h -6.21582"
         id="path3666" />
      <path
         d="m 253.45145,445.29745 v -0.83984 h 6.21582 v 0.83984 h -6.21582"
         id="path3668" />
      <path
         d="m 259.46708,445.29745 v -0.83984 h 6.21582 v 0.83984 h -6.21582"
         id="path3670" />
      <path
         d="m 265.4827,445.29745 v -0.83984 h 6.21582 v 0.83984 h -6.21582"
         id="path3672" />
      <path
         d="m 271.49833,445.29745 v -0.83984 h 6.21582 v 0.83984 h -6.21582"
         id="path3674" />
      <path
         d="m 277.51395,445.29745 v -0.83984 h 6.21582 v 0.83984 h -6.21582"
         id="path3676" />
      <path
         d="m 283.52958,445.29745 v -0.83984 h 6.21582 v 0.83984 h -6.21582"
         id="path3678" />
      <path
         d="m 289.5452,445.29745 v -0.83984 h 6.21582 v 0.83984 h -6.21582"
         id="path3680" />
      <path
         d="m 295.56083,445.29745 v -0.83984 h 6.21582 v 0.83984 h -6.21582"
         id="path3682" />
      <path
         d="m 301.57645,445.29745 v -0.83984 h 6.21582 v 0.83984 h -6.21582"
         id="path3684" />
      <path
         d="m 307.59208,445.29745 v -0.83984 h 6.21582 v 0.83984 h -6.21582"
         id="path3686" />
      <path
         d="m 313.6077,445.29745 v -0.83984 h 6.21582 v 0.83984 h -6.21582"
         id="path3688" />
      <path
         d="m 319.62333,445.29745 v -0.83984 h 6.21582 v 0.83984 h -6.21582"
         id="path3690" />
      <path
         d="m 325.63895,445.29745 v -0.83984 h 6.21582 v 0.83984 h -6.21582"
         id="path3692" />
      <path
         d="m 331.65458,445.29745 v -0.83984 h 6.21582 v 0.83984 h -6.21582"
         id="path3694" />
      <path
         d="m 337.6702,445.29745 v -0.83984 h 6.21582 v 0.83984 h -6.21582"
         id="path3696" />
      <path
         d="m 343.68583,445.29745 v -0.83984 h 6.21582 v 0.83984 h -6.21582"
         id="path3698" />
      <path
         d="m 349.70145,445.29745 v -0.83984 h 6.21582 v 0.83984 h -6.21582"
         id="path3700" />
      <path
         d="m 355.71708,445.29745 v -0.83984 h 6.21582 v 0.83984 h -6.21582"
         id="path3702" />
      <path
         d="m 361.7327,445.29745 v -0.83984 h 6.21582 v 0.83984 h -6.21582"
         id="path3704" />
      <path
         d="m 367.74833,445.29745 v -0.83984 h 6.21582 v 0.83984 h -6.21582"
         id="path3706" />
      <path
         d="m 373.76395,445.29745 v -0.83984 h 6.21582 v 0.83984 h -6.21582"
         id="path3708" />
      <path
         d="m 379.77958,445.29745 v -0.83984 h 6.21582 v 0.83984 h -6.21582"
         id="path3710" />
      <path
         d="m 385.7952,445.29745 v -0.83984 h 6.21582 v 0.83984 h -6.21582"
         id="path3712" />
      <path
         d="m 391.81083,445.29745 v -0.83984 h 6.21582 v 0.83984 h -6.21582"
         id="path3714" />
      <path
         d="m 397.82645,445.29745 v -0.83984 h 6.21582 v 0.83984 h -6.21582"
         id="path3716" />
      <path
         d="m 403.84208,445.29745 v -0.83984 h 6.21582 v 0.83984 h -6.21582"
         id="path3718" />
      <path
         d="m 409.8577,445.29745 v -0.83984 h 6.21582 v 0.83984 h -6.21582"
         id="path3720" />
      <path
         d="m 415.87333,445.29745 v -0.83984 h 6.21582 v 0.83984 h -6.21582"
         id="path3722" />
      <path
         d="m 421.88895,445.29745 v -0.83984 h 6.21582 v 0.83984 h -6.21582"
         id="path3724" />
      <path
         d="m 427.90458,445.29745 v -0.83984 h 6.21582 v 0.83984 h -6.21582"
         id="path3726" />
      <path
         d="m 433.9202,445.29745 v -0.83984 h 6.21582 v 0.83984 h -6.21582"
         id="path3728" />
      <path
         d="m 439.93583,445.29745 v -0.83984 h 6.21582 v 0.83984 h -6.21582"
         id="path3730" />
      <path
         d="m 445.95145,445.29745 v -0.83984 h 6.21582 v 0.83984 h -6.21582"
         id="path3732" />
      <path
         d="m 451.96708,445.29745 v -0.83984 h 6.21582 v 0.83984 h -6.21582"
         id="path3734" />
      <path
         d="m 457.9827,445.29745 v -0.83984 h 6.21582 v 0.83984 h -6.21582"
         id="path3736" />
      <path
         d="m 463.99833,445.29745 v -0.83984 h 6.21582 v 0.83984 h -6.21582"
         id="path3738" />
      <path
         d="m 470.01395,445.29745 v -0.83984 h 6.21582 v 0.83984 h -6.21582"
         id="path3740" />
      <path
         d="m 476.02958,445.29745 v -0.83984 h 6.21582 v 0.83984 h -6.21582"
         id="path3742" />
      <path
         d="m 482.0452,445.29745 v -0.83984 h 6.21582 v 0.83984 h -6.21582"
         id="path3744" />
      <path
         d="m 488.06083,445.29745 v -0.83984 h 6.21582 v 0.83984 h -6.21582"
         id="path3746" />
      <path
         d="m 494.07645,445.29745 v -0.83984 h 6.21582 v 0.83984 h -6.21582"
         id="path3748" />
      <path
         d="m 500.09208,445.29745 v -0.83984 h 6.21582 v 0.83984 h -6.21582"
         id="path3750" />
      <path
         d="m 506.1077,445.29745 v -0.83984 h 6.21582 v 0.83984 h -6.21582"
         id="path3752" />
      <path
         d="m 512.12333,445.29745 v -0.83984 h 6.21582 v 0.83984 h -6.21582"
         id="path3754" />
      <path
         d="m 518.13895,445.29745 v -0.83984 h 6.21582 v 0.83984 h -6.21582"
         id="path3756" />
      <path
         d="m 524.15458,445.29745 v -0.83984 h 6.21582 v 0.83984 h -6.21582"
         id="path3758" />
      <path
         d="m 530.1702,445.29745 v -0.83984 h 6.21582 v 0.83984 h -6.21582"
         id="path3760" />
      <path
         d="m 536.18583,445.29745 v -0.83984 h 6.21582 v 0.83984 h -6.21582"
         id="path3762" />
      <path
         d="m 542.20145,445.29745 v -0.83984 h 6.21582 v 0.83984 h -6.21582"
         id="path3764" />
      <path
         d="m 548.21708,445.29745 v -0.83984 h 6.21582 v 0.83984 h -6.21582"
         id="path3766" />
      <path
         d="m 554.2327,445.29745 v -0.83984 h 6.21582 v 0.83984 h -6.21582"
         id="path3768" />
      <path
         d="m 560.24833,445.29745 v -0.83984 h 6.21582 v 0.83984 h -6.21582"
         id="path3770" />
      <path
         d="m 566.26395,445.29745 v -0.83984 h 6.21582 v 0.83984 h -6.21582"
         id="path3772" />
      <path
         d="m 572.27958,445.29745 v -0.83984 h 2.71484 v -6.46484 h 0.78125 v 7.30468 h -3.49609"
         id="path3774" />
    </g>
  </g>
</svg>
